<?xml version="1.0"?>
<!DOCTYPE svg PUBLIC "-//W3C//DTD SVG 1.1//EN" "http://www.w3.org/Graphics/SVG/1.1/DTD/svg11.dtd">
<svg width="53.04mm" height="39.04mm" viewBox="0 0 53.04 39.04" xmlns="http://www.w3.org/2000/svg" version="1.1">
<g id="Part__Part2DObjectPython" transform="translate(26.910000,19.520000) scale(1,-1)">
<path id="Part__Part2DObjectPython_w0000"  d="M -2.388015977826729 18.05332730266073 L -23.50404793348019 17.25 A 3 3 0 0 1 -26.39 14.2522L -26.39 -14.252168605663604 A 3 3 0 0 1 -23.504 -17.25L -2.388015977826729 -18.05332730266073 A 1 1 0 0 1 -1.35 -17.0541L -1.35 -15.05 A 1.35 1.35 0 0 0 1.35 -15.05L 1.35 -17.23285451904135 A 1 1 0 0 1 2.31198 -18.2321L 22.49595206651981 -19.0 A 3 3 0 0 1 25.61 -16.0022L 25.61 16.002168605663606 A 3 3 0 0 1 22.496 19L 2.3119840221732706 18.232131650486817 A 1 1 0 0 1 1.35 17.2329L 1.35 15.05 A 1.35 1.35 0 1 0 -1.35 15.05L -1.35 17.054050171215266 A 1 1 0 0 1 -2.38802 18.0533" stroke="#f1f3f5" stroke-width="0.7 px" style="stroke-width:0.7;stroke-miterlimit:4;stroke-dasharray:none;stroke-linecap:square;fill:none;fill-opacity:1;fill-rule: evenodd"/>
<title>b'Part__Part2DObjectPython'</title>
</g>
</svg>