<?xml version="1.0" standalone="no"?>
 <!DOCTYPE svg PUBLIC "-//W3C//DTD SVG 1.1//EN" 
 "http://www.w3.org/Graphics/SVG/1.1/DTD/svg11.dtd"> 
<svg
  xmlns:svg="http://www.w3.org/2000/svg"
  xmlns="http://www.w3.org/2000/svg"
  xmlns:xlink="http://www.w3.org/1999/xlink"
  version="1.1"
  width="297.0022mm" height="210.0072mm" viewBox="0.0000 0.0000 297.0022 210.0072">
<title>SVG Image created as LDC_mic_volt-mult-F_Cu.svg date 2026/01/25 17:33:50 </title>
  <desc>Image generated by PCBNEW </desc>
<g style="fill:#000000; fill-opacity:1.0000;stroke:#000000; stroke-opacity:1.0000;
stroke-linecap:round; stroke-linejoin:round;"
 transform="translate(0 0) scale(1 1)">
</g>
<g style="fill:none; 
stroke:#C83434; stroke-width:0.2000; stroke-opacity:1; 
stroke-linecap:round; stroke-linejoin:round;">
<path d="M69.0000 57.5000
L70.0000 58.5000
" />
<path d="M67.5000 58.5000
L68.5000 60.5000
" />
<path d="M63.0000 49.7500
L61.5000 51.2500
" />
</g>
<g style="fill:none; 
stroke:#C83434; stroke-width:0.3000; stroke-opacity:1; 
stroke-linecap:round; stroke-linejoin:round;">
<path d="M60.0000 58.5000
L53.0000 58.5000
" />
</g>
<g style="fill:none; 
stroke:#C83434; stroke-width:0.2000; stroke-opacity:1; 
stroke-linecap:round; stroke-linejoin:round;">
<path d="M55.0000 49.5000
L55.0000 46.5000
" />
<path d="M68.5000 70.5000
L67.5000 71.5000
" />
<path d="M67.5000 58.5000
L67.5000 51.0000
" />
<path d="M69.5000 68.5000
L70.0000 68.5000
" />
<path d="M59.4000 76.7500
L65.0000 76.7500
" />
<path d="M66.0000 56.5000
L63.0000 56.5000
" />
<path d="M52.0000 46.5000
L52.0000 43.5000
" />
</g>
<g style="fill:none; 
stroke:#C83434; stroke-width:0.4000; stroke-opacity:1; 
stroke-linecap:round; stroke-linejoin:round;">
<path d="M59.2000 72.0000
L57.5000 74.0000
" />
</g>
<g style="fill:none; 
stroke:#C83434; stroke-width:0.2000; stroke-opacity:1; 
stroke-linecap:round; stroke-linejoin:round;">
<path d="M67.5000 71.5000
L65.5000 71.5000
" />
<path d="M65.5000 71.5000
L64.5000 70.5000
" />
<path d="M67.0000 79.0000
L69.0000 79.0000
" />
<path d="M52.5000 69.0000
L52.5000 61.5000
" />
<path d="M68.5000 60.5000
L71.5000 60.5000
" />
<path d="M52.5000 61.5000
L53.0000 60.5000
" />
<path d="M52.0000 52.5000
L52.0000 49.5000
" />
<path d="M63.2000 74.0000
L63.2000 75.0000
" />
</g>
<g style="fill:none; 
stroke:#C83434; stroke-width:0.4000; stroke-opacity:1; 
stroke-linecap:round; stroke-linejoin:round;">
<path d="M57.5000 74.0000
L57.5000 82.0000
" />
</g>
<g style="fill:none; 
stroke:#C83434; stroke-width:0.2000; stroke-opacity:1; 
stroke-linecap:round; stroke-linejoin:round;">
<path d="M60.0000 69.5000
L60.0000 64.5000
" />
<path d="M64.5000 75.0000
L64.5000 74.0000
" />
<path d="M55.5000 62.0000
L56.5000 60.5000
" />
<path d="M66.0000 67.5000
L67.0000 68.5000
" />
</g>
<g style="fill:none; 
stroke:#C83434; stroke-width:0.4000; stroke-opacity:1; 
stroke-linecap:round; stroke-linejoin:round;">
<path d="M71.8000 75.0000
L71.0000 75.0000
" />
<path d="M73.5000 69.5000
L71.0000 72.0000
" />
</g>
<g style="fill:none; 
stroke:#C83434; stroke-width:0.2000; stroke-opacity:1; 
stroke-linecap:round; stroke-linejoin:round;">
<path d="M55.0000 37.5000
L56.5000 36.0000
" />
<path d="M62.5000 60.5000
L65.5000 60.5000
" />
</g>
<g style="fill:none; 
stroke:#C83434; stroke-width:0.4000; stroke-opacity:1; 
stroke-linecap:round; stroke-linejoin:round;">
<path d="M63.3000 70.0000
L63.3000 72.0000
" />
</g>
<g style="fill:none; 
stroke:#C83434; stroke-width:0.2000; stroke-opacity:1; 
stroke-linecap:round; stroke-linejoin:round;">
<path d="M70.0000 58.5000
L72.5000 58.5000
" />
<path d="M72.5000 58.5000
L75.0000 60.5000
" />
<path d="M71.0000 52.5000
L71.0000 55.5000
" />
<path d="M69.5000 71.0000
L68.0000 72.5000
" />
</g>
<g style="fill:none; 
stroke:#C83434; stroke-width:0.4000; stroke-opacity:1; 
stroke-linecap:round; stroke-linejoin:round;">
<path d="M53.0000 74.5000
L51.5000 73.5000
" />
</g>
<g style="fill:none; 
stroke:#C83434; stroke-width:0.2000; stroke-opacity:1; 
stroke-linecap:round; stroke-linejoin:round;">
<path d="M70.0000 68.5000
L71.0000 70.0000
" />
<path d="M75.0000 63.2500
L74.0000 64.7500
" />
<path d="M59.0000 49.5000
L59.0000 47.5000
" />
<path d="M55.5000 72.0000
L55.9000 72.0000
" />
<path d="M73.0000 50.0000
L73.0000 52.5000
" />
<path d="M66.0000 72.5000
L68.0000 72.5000
" />
<path d="M74.0000 56.5000
L72.5000 58.5000
" />
<path d="M56.5000 60.5000
L59.5000 60.5000
" />
<path d="M75.0000 60.7500
L75.0000 63.2500
" />
<path d="M66.0000 78.0000
L67.0000 79.0000
" />
<path d="M67.0000 74.0000
L67.0000 75.0000
" />
</g>
<g style="fill:none; 
stroke:#C83434; stroke-width:0.4000; stroke-opacity:1; 
stroke-linecap:round; stroke-linejoin:round;">
<path d="M73.5000 80.0000
L73.5000 78.5000
" />
</g>
<g style="fill:none; 
stroke:#C83434; stroke-width:0.2000; stroke-opacity:1; 
stroke-linecap:round; stroke-linejoin:round;">
<path d="M65.7500 70.0000
L65.7500 68.5000
" />
<path d="M55.0000 49.5000
L57.0000 51.2500
" />
<path d="M56.5000 73.5000
L55.9000 72.0000
" />
<path d="M73.5000 74.0000
L73.5000 75.5000
" />
</g>
<g style="fill:none; 
stroke:#C83434; stroke-width:0.4000; stroke-opacity:1; 
stroke-linecap:round; stroke-linejoin:round;">
<path d="M71.8000 75.0000
L73.5000 72.5000
" />
</g>
<g style="fill:none; 
stroke:#C83434; stroke-width:0.2000; stroke-opacity:1; 
stroke-linecap:round; stroke-linejoin:round;">
<path d="M68.5000 68.5000
L72.0000 65.0000
" />
<path d="M61.5000 62.0000
L62.5000 60.5000
" />
<path d="M67.0000 68.5000
L67.0000 70.0000
" />
<path d="M55.0000 43.5000
L55.0000 37.5000
" />
<path d="M66.0000 64.5000
L66.0000 67.5000
" />
<path d="M73.0000 53.0000
L73.0000 54.5000
" />
<path d="M68.5000 70.0000
L68.5000 68.5000
" />
<path d="M68.2500 76.0000
L68.2500 77.5000
" />
<path d="M66.0000 75.5000
L66.0000 78.0000
" />
<path d="M69.7000 75.5000
L69.7000 77.5000
" />
<path d="M64.5000 74.0000
L66.0000 72.5000
" />
<path d="M68.2500 74.0000
L68.2500 75.0000
" />
</g>
<g style="fill:none; 
stroke:#C83434; stroke-width:0.3000; stroke-opacity:1; 
stroke-linecap:round; stroke-linejoin:round;">
<path d="M63.0000 52.7500
L59.0000 52.7500
" />
</g>
<g style="fill:none; 
stroke:#C83434; stroke-width:0.2000; stroke-opacity:1; 
stroke-linecap:round; stroke-linejoin:round;">
<path d="M70.5000 57.8000
L70.5000 56.5000
" />
<path d="M58.4000 76.0000
L59.4000 76.7500
" />
<path d="M52.5000 69.0000
L55.5000 72.0000
" />
<path d="M61.5000 64.5000
L61.5000 62.0000
" />
</g>
<g style="fill:none; 
stroke:#C83434; stroke-width:0.4000; stroke-opacity:1; 
stroke-linecap:round; stroke-linejoin:round;">
<path d="M60.0000 72.0000
L59.2000 72.0000
" />
</g>
<g style="fill:none; 
stroke:#C83434; stroke-width:0.2000; stroke-opacity:1; 
stroke-linecap:round; stroke-linejoin:round;">
<path d="M63.2000 74.0000
L53.5000 64.5000
" />
<path d="M55.0000 52.5000
L59.0000 56.5000
" />
<path d="M55.5000 64.5000
L55.5000 62.0000
" />
</g>
<g style="fill:none; 
stroke:#C83434; stroke-width:0.3000; stroke-opacity:1; 
stroke-linecap:round; stroke-linejoin:round;">
<path d="M63.0000 52.7500
L61.5000 54.5000
" />
</g>
<g style="fill:none; 
stroke:#C83434; stroke-width:0.2000; stroke-opacity:1; 
stroke-linecap:round; stroke-linejoin:round;">
<path d="M71.0000 55.5000
L70.5000 56.5000
" />
<path d="M57.0000 51.2500
L61.5000 51.2500
" />
<path d="M60.0000 56.5000
L59.0000 56.5000
" />
<path d="M65.0000 76.7500
L65.8333 75.5000
" />
</g>
<g style="fill:none; 
stroke:#C83434; stroke-width:0.4000; stroke-opacity:1; 
stroke-linecap:round; stroke-linejoin:round;">
<path d="M53.0000 79.0000
L57.5000 82.0000
" />
</g>
<g style="fill:none; 
stroke:#C83434; stroke-width:0.2000; stroke-opacity:1; 
stroke-linecap:round; stroke-linejoin:round;">
<path d="M55.0000 43.5000
L59.0000 47.5000
" />
<path d="M71.0000 50.0000
L71.0000 52.5000
" />
<path d="M70.0000 78.0000
L69.0000 79.0000
" />
<path d="M69.5000 70.0000
L69.5000 71.0000
" />
<path d="M56.5000 36.0000
L73.0000 36.0000
" />
</g>
<g style="fill:none; 
stroke:#C83434; stroke-width:0.3000; stroke-opacity:1; 
stroke-linecap:round; stroke-linejoin:round;">
<path d="M61.5000 54.5000
L61.5000 57.0000
" />
<path d="M61.5000 57.0000
L60.0000 58.5000
" />
</g>
<g style="fill:none; 
stroke:#C83434; stroke-width:0.2000; stroke-opacity:1; 
stroke-linecap:round; stroke-linejoin:round;">
<path d="M64.5000 74.0000
L60.0000 69.5000
" />
<path d="M56.5000 76.2500
L56.5000 73.5000
" />
<path d="M68.5000 63.0000
L68.5000 60.5000
" />
<path d="M69.0000 55.0000
L69.0000 57.5000
" />
<path d="M68.0000 64.0000
L68.5000 63.0000
" />
</g>
<g style="fill:none; 
stroke:#C83434; stroke-width:0.3000; stroke-opacity:1; 
stroke-linecap:round; stroke-linejoin:round;">
<path d="M53.0000 58.5000
L50.5000 61.5000
" />
<path style="fill:#C83434; fill-opacity:1.0000; stroke:none;fill-rule:evenodd;"
d="M 74.1622,40.3411
74.2176,40.4035
74.2698,40.4685
74.3190,40.5360
74.3648,40.6059
74.4073,40.6781
74.4463,40.7525
74.4816,40.8291
74.5133,40.9075
74.5410,40.9879
74.5649,41.0699
74.5846,41.1537
74.6002,41.2389
74.6115,41.3256
74.6183,41.4135
74.6206,41.5026
74.6189,41.5799
74.6137,41.6563
74.6053,41.7318
74.5935,41.8062
74.5786,41.8796
74.5606,41.9517
74.5395,42.0227
74.5155,42.0923
74.4885,42.1605
74.4588,42.2273
74.4263,42.2925
74.3912,42.3562
74.3535,42.4181
74.3132,42.4783
74.2705,42.5367
74.2255,42.5932
74.0994,42.3185
74.1286,42.2745
74.1561,42.2294
74.1821,42.1832
74.2063,42.1360
74.2289,42.0877
74.2497,42.0385
74.2687,41.9884
74.2859,41.9375
74.3012,41.8856
74.3146,41.8330
74.3261,41.7796
74.3356,41.7255
74.3430,41.6707
74.3484,41.6153
74.3516,41.5593
74.3527,41.5026
74.3511,41.4336
74.3462,41.3654
74.3382,41.2981
74.3272,41.2319
74.3132,41.1668
74.2962,41.1028
74.2765,41.0400
74.2539,40.9785
74.2287,40.9183
74.2009,40.8596
74.1705,40.8024
74.1377,40.7468
74.1025,40.6927
74.0650,40.6404
74.0253,40.5899
73.9834,40.5411
74.1040,40.2815
Z" /> 
<path style="fill:#C83434; fill-opacity:1.0000; stroke:none;fill-rule:evenodd;"
d="M 74.6419,39.4751
74.7561,39.5748
74.8644,39.6807
74.9664,39.7927
75.0619,39.9104
75.1506,40.0336
75.2323,40.1620
75.3066,40.2952
75.3732,40.4331
75.4319,40.5752
75.4823,40.7214
75.5242,40.8713
75.5573,41.0247
75.5813,41.1812
75.5960,41.3406
75.6009,41.5026
75.5966,41.6538
75.5839,41.8027
75.5630,41.9491
75.5341,42.0928
75.4975,42.2336
75.4534,42.3713
75.4021,42.5055
75.3437,42.6361
75.2785,42.7629
75.2068,42.8855
75.1287,43.0038
75.0446,43.1176
74.9546,43.2266
74.8590,43.3305
74.7580,43.4292
74.6518,43.5224
74.5361,43.2704
74.6256,43.1871
74.7107,43.0994
74.7911,43.0073
74.8668,42.9111
74.9375,42.8110
75.0030,42.7071
75.0632,42.5996
75.1178,42.4888
75.1667,42.3748
75.2097,42.2578
75.2466,42.1379
75.2772,42.0154
75.3013,41.8904
75.3188,41.7632
75.3294,41.6339
75.3330,41.5026
75.3288,41.3603
75.3163,41.2203
75.2958,41.0827
75.2675,40.9478
75.2317,40.8160
75.1885,40.6873
75.1383,40.5621
75.0812,40.4405
75.0176,40.3229
74.9476,40.2094
74.8715,40.1003
74.7895,39.9958
74.7018,39.8962
74.6088,39.8017
74.5106,39.7125
74.4074,39.6288
74.5221,39.3821
Z" /> 
<path style="fill:#C83434; fill-opacity:1.0000; stroke:none;fill-rule:evenodd;"
d="M 75.0881,38.6661
75.2556,38.8005
75.4145,38.9447
75.5644,39.0982
75.7049,39.2606
75.8356,39.4314
75.9560,39.6102
76.0656,39.7964
76.1640,39.9897
76.2507,40.1897
76.3254,40.3957
76.3875,40.6075
76.4365,40.8245
76.4721,41.0464
76.4938,41.2726
76.5012,41.5026
76.4945,41.7223
76.4747,41.9384
76.4422,42.1505
76.3974,42.3584
76.3407,42.5615
76.2725,42.7595
76.1931,42.9521
76.1030,43.1387
76.0025,43.3191
75.8920,43.4928
75.7720,43.6595
75.6428,43.8187
75.5048,43.9701
75.3584,44.1132
75.2041,44.2478
75.0421,44.3733
74.9289,44.1266
75.0741,44.0104
75.2124,43.8863
75.3434,43.7546
75.4669,43.6155
75.5824,43.4695
75.6897,43.3170
75.7884,43.1581
75.8781,42.9933
75.9586,42.8229
76.0294,42.6473
76.0903,42.4668
76.1408,42.2817
76.1808,42.0925
76.2097,41.8993
76.2273,41.7026
76.2332,41.5026
76.2316,41.3970
76.2267,41.2921
76.2185,41.1882
76.2071,41.0852
76.1926,40.9831
76.1751,40.8822
76.1309,40.6835
76.0750,40.4897
76.0077,40.3010
75.9295,40.1178
75.8408,39.9407
75.7420,39.7699
75.6333,39.6058
75.5154,39.4489
75.3885,39.2996
75.2530,39.1582
75.1094,39.0252
74.9580,38.9009
74.7993,38.7858
74.9127,38.5418
74.9127,38.5418
Z" /> 
<path style="fill:#C83434; fill-opacity:1.0000; stroke:none;fill-rule:evenodd;"
d="M 60.5052,42.0329
60.5056,42.1696
60.5073,42.2849
60.5113,42.3846
60.5143,42.4303
60.5182,42.4743
60.5230,42.5173
60.5289,42.5600
60.5359,42.6030
60.5442,42.6472
60.5538,42.6932
60.5649,42.7417
60.5919,42.8493
60.5919,42.8494
60.5919,42.8495
60.5919,42.8496
60.5919,42.8500
60.6082,42.9071
60.6262,42.9629
60.6457,43.0172
60.6669,43.0700
60.6897,43.1214
60.7140,43.1712
60.7400,43.2196
60.7675,43.2664
60.7967,43.3117
60.8274,43.3554
60.8597,43.3975
60.8935,43.4381
60.9290,43.4770
60.9659,43.5143
61.0045,43.5499
61.0445,43.5838
61.0448,43.5841
61.0451,43.5843
61.0456,43.5847
61.0896,43.6174
61.1355,43.6478
61.1833,43.6759
61.2330,43.7019
61.2847,43.7257
61.3383,43.7473
61.3938,43.7667
61.4511,43.7841
61.5103,43.7993
61.5714,43.8125
61.6344,43.8235
61.6992,43.8325
61.7658,43.8395
61.8342,43.8445
61.9045,43.8474
61.9766,43.8484
62.0486,43.8474
62.1188,43.8445
62.1870,43.8395
62.2534,43.8326
62.3179,43.8235
62.3804,43.8125
62.4411,43.7993
62.4998,43.7841
62.5565,43.7667
62.6113,43.7472
62.6642,43.7255
62.7151,43.7017
62.7639,43.6756
62.8108,43.6473
62.8557,43.6168
62.8986,43.5840
62.9398,43.5501
62.9795,43.5146
63.0174,43.4773
63.0538,43.4384
63.0886,43.3979
63.1217,43.3558
63.1531,43.3121
63.1829,43.2668
63.2111,43.2199
63.2376,43.1715
63.2624,43.1216
63.2856,43.0702
63.3070,43.0173
63.3268,42.9630
63.3449,42.9072
63.3613,42.8500
63.3613,42.8499
63.3613,42.8498
63.3613,42.8496
63.3614,42.8495
63.3614,42.8494
63.3614,42.8493
63.3881,42.7424
63.4083,42.6497
63.4162,42.6067
63.4228,42.5650
63.4282,42.5238
63.4326,42.4823
63.4386,42.3955
63.4417,42.2984
63.4429,42.1849
63.4431,42.0489
63.4431,41.9965
63.7655,41.9965
63.7634,42.2865
63.7614,42.4041
63.7566,42.5113
63.7526,42.5628
63.7473,42.6139
63.7404,42.6652
63.7318,42.7177
63.7213,42.7718
63.7085,42.8285
63.6934,42.8884
63.6758,42.9522
63.6551,43.0198
63.6325,43.0856
63.6080,43.1495
63.5816,43.2115
63.5534,43.2718
63.5231,43.3302
63.4910,43.3868
63.4570,43.4417
63.4209,43.4948
63.3830,43.5462
63.3431,43.5958
63.3012,43.6437
63.2574,43.6899
63.2116,43.7345
63.1637,43.7773
63.1139,43.8185
63.1137,43.8187
63.0638,43.8557
63.0112,43.8904
62.9558,43.9229
62.8976,43.9531
62.8365,43.9810
62.7727,44.0066
62.7060,44.0298
62.6364,44.0507
62.5640,44.0692
62.4888,44.0853
62.4106,44.0989
62.3296,44.1102
62.2457,44.1189
62.1589,44.1252
62.1473,44.1257
62.1473,44.6118
61.8059,44.6118
61.8059,44.1257
61.7942,44.1252
61.7072,44.1189
61.6231,44.1102
61.5418,44.0989
61.4632,44.0853
61.3875,44.0692
61.3145,44.0507
61.2443,44.0298
61.1768,44.0066
61.1121,43.9809
61.0502,43.9530
60.9909,43.9227
60.9344,43.8902
60.8806,43.8553
60.8295,43.8182
60.7810,43.7771
60.7344,43.7343
60.6897,43.6899
60.6468,43.6437
60.6059,43.5959
60.5668,43.5463
60.5296,43.4950
60.4942,43.4419
60.4607,43.3871
60.4291,43.3305
60.3993,43.2721
60.3713,43.2119
60.3452,43.1499
60.3209,43.0860
60.2984,43.0203
60.2778,42.9527
60.2778,42.9527
60.2777,42.9527
60.2777,42.9526
60.2777,42.9526
60.2777,42.9525
60.2777,42.9525
60.2777,42.9525
60.2777,42.9525
60.2776,42.9524
60.2776,42.9524
60.2776,42.9524
60.2776,42.9524
60.2776,42.9524
60.2776,42.9523
60.2776,42.9523
60.2776,42.9522
60.2776,42.9522
60.2776,42.9522
60.2775,42.9522
60.2775,42.9522
60.2601,42.8876
60.2453,42.8271
60.2331,42.7699
60.2230,42.7153
60.2150,42.6626
60.2088,42.6110
60.2042,42.5597
60.2009,42.5082
60.1974,42.4012
60.1965,42.2841
60.1952,41.9965
60.5052,41.9965
Z" /> 
<path style="fill:#C83434; fill-opacity:1.0000; stroke:none;fill-rule:evenodd;"
d="M 62.1667,64.9750
62.1476,65.0707
62.0934,65.1518
62.0123,65.2060
61.9167,65.2250
61.4167,65.2250
61.3210,65.2060
61.2399,65.1518
61.1857,65.0707
61.1667,64.9750
61.1667,64.0250
61.1857,63.9293
61.2399,63.8482
61.3210,63.7940
61.4167,63.7750
61.9167,63.7750
62.0123,63.7940
62.0934,63.8482
62.1476,63.9293
62.1667,64.0250
Z" /> 
<path style="fill:#C83434; fill-opacity:1.0000; stroke:none;fill-rule:evenodd;"
d="M 60.2667,64.9750
60.2476,65.0707
60.1934,65.1518
60.1123,65.2060
60.0167,65.2250
59.5167,65.2250
59.4210,65.2060
59.3399,65.1518
59.2857,65.0707
59.2667,64.9750
59.2667,64.0250
59.2857,63.9293
59.3399,63.8482
59.4210,63.7940
59.5167,63.7750
60.0167,63.7750
60.1123,63.7940
60.1934,63.8482
60.2476,63.9293
60.2667,64.0250
Z" /> 
<path style="fill:#C83434; fill-opacity:1.0000; stroke:none;fill-rule:evenodd;"
d="M 75.3000,60.8750
75.2829,60.9611
75.2341,61.0341
75.1611,61.0829
75.0750,61.1000
74.6250,61.1000
74.5389,61.0829
74.4659,61.0341
74.4171,60.9611
74.4000,60.8750
74.4000,60.1250
74.4171,60.0389
74.4659,59.9659
74.5389,59.9171
74.6250,59.9000
75.0750,59.9000
75.1611,59.9171
75.2341,59.9659
75.2829,60.0389
75.3000,60.1250
Z" /> 
<path style="fill:#C83434; fill-opacity:1.0000; stroke:none;fill-rule:evenodd;"
d="M 72.0000,60.8750
71.9829,60.9611
71.9341,61.0341
71.8611,61.0829
71.7750,61.1000
71.3250,61.1000
71.2389,61.0829
71.1659,61.0341
71.1171,60.9611
71.1000,60.8750
71.1000,60.1250
71.1171,60.0389
71.1659,59.9659
71.2389,59.9171
71.3250,59.9000
71.7750,59.9000
71.8611,59.9171
71.9341,59.9659
71.9829,60.0389
72.0000,60.1250
Z" /> 
<path style="fill:#C83434; fill-opacity:1.0000; stroke:none;fill-rule:evenodd;"
d="M 71.0000,81.2500
71.0190,81.1543
71.0732,81.0732
71.1543,81.0190
71.2500,81.0000
72.7500,81.0000
72.8457,81.0190
72.9268,81.0732
72.9810,81.1543
73.0000,81.2500
73.0000,82.7500
72.9810,82.8457
72.9268,82.9268
72.8457,82.9810
72.7500,83.0000
71.2500,83.0000
71.1543,82.9810
71.0732,82.9268
71.0190,82.8457
71.0000,82.7500
Z" /> 
<path style="fill:#C83434; fill-opacity:1.0000; stroke:none;fill-rule:evenodd;"
d="M 55.5250,50.1250
55.5060,50.2207
55.4518,50.3018
55.3707,50.3560
55.2750,50.3750
54.6500,50.3750
54.5543,50.3560
54.4732,50.3018
54.4190,50.2207
54.4000,50.1250
54.4000,48.8750
54.4190,48.7793
54.4732,48.6982
54.5543,48.6440
54.6500,48.6250
55.2750,48.6250
55.3707,48.6440
55.4518,48.6982
55.5060,48.7793
55.5250,48.8750
Z" /> 
<path style="fill:#C83434; fill-opacity:1.0000; stroke:none;fill-rule:evenodd;"
d="M 52.6000,50.1250
52.5810,50.2207
52.5268,50.3018
52.4457,50.3560
52.3500,50.3750
51.7250,50.3750
51.6293,50.3560
51.5482,50.3018
51.4940,50.2207
51.4750,50.1250
51.4750,48.8750
51.4940,48.7793
51.5482,48.6982
51.6293,48.6440
51.7250,48.6250
52.3500,48.6250
52.4457,48.6440
52.5268,48.6982
52.5810,48.7793
52.6000,48.8750
Z" /> 
<path style="fill:#C83434; fill-opacity:1.0000; stroke:none;fill-rule:evenodd;"
d="M 74.1500,74.8740
74.2457,74.8930
74.3268,74.9472
74.3810,75.0283
74.4000,75.1240
74.4000,75.7740
74.3810,75.8697
74.3268,75.9508
74.2457,76.0050
74.1500,76.0240
72.8500,76.0240
72.7543,76.0050
72.6732,75.9508
72.6190,75.8697
72.6000,75.7740
72.6000,75.1240
72.6190,75.0283
72.6732,74.9472
72.7543,74.8930
72.8500,74.8740
Z" /> 
<path style="fill:#C83434; fill-opacity:1.0000; stroke:none;fill-rule:evenodd;"
d="M 74.1500,77.8240
74.2457,77.8430
74.3268,77.8972
74.3810,77.9783
74.4000,78.0740
74.4000,78.7240
74.3810,78.8197
74.3268,78.9008
74.2457,78.9550
74.1500,78.9740
72.8500,78.9740
72.7543,78.9550
72.6732,78.9008
72.6190,78.8197
72.6000,78.7240
72.6000,78.0740
72.6190,77.9783
72.6732,77.8972
72.7543,77.8430
72.8500,77.8240
Z" /> 
<path style="fill:#C83434; fill-opacity:1.0000; stroke:none;fill-rule:evenodd;"
d="M 51.4750,45.8750
51.4940,45.7793
51.5482,45.6982
51.6293,45.6440
51.7250,45.6250
52.3500,45.6250
52.4457,45.6440
52.5268,45.6982
52.5810,45.7793
52.6000,45.8750
52.6000,47.1250
52.5810,47.2207
52.5268,47.3018
52.4457,47.3560
52.3500,47.3750
51.7250,47.3750
51.6293,47.3560
51.5482,47.3018
51.4940,47.2207
51.4750,47.1250
Z" /> 
<path style="fill:#C83434; fill-opacity:1.0000; stroke:none;fill-rule:evenodd;"
d="M 54.4000,45.8750
54.4190,45.7793
54.4732,45.6982
54.5543,45.6440
54.6500,45.6250
55.2750,45.6250
55.3707,45.6440
55.4518,45.6982
55.5060,45.7793
55.5250,45.8750
55.5250,47.1250
55.5060,47.2207
55.4518,47.3018
55.3707,47.3560
55.2750,47.3750
54.6500,47.3750
54.5543,47.3560
54.4732,47.3018
54.4190,47.2207
54.4000,47.1250
Z" /> 
<path style="fill:#C83434; fill-opacity:1.0000; stroke:none;fill-rule:evenodd;"
d="M 56.8000,60.8750
56.7829,60.9611
56.7341,61.0341
56.6611,61.0829
56.5750,61.1000
56.1250,61.1000
56.0389,61.0829
55.9659,61.0341
55.9171,60.9611
55.9000,60.8750
55.9000,60.1250
55.9171,60.0389
55.9659,59.9659
56.0389,59.9171
56.1250,59.9000
56.5750,59.9000
56.6611,59.9171
56.7341,59.9659
56.7829,60.0389
56.8000,60.1250
Z" /> 
<path style="fill:#C83434; fill-opacity:1.0000; stroke:none;fill-rule:evenodd;"
d="M 53.5000,60.8750
53.4829,60.9611
53.4341,61.0341
53.3611,61.0829
53.2750,61.1000
52.8250,61.1000
52.7389,61.0829
52.6659,61.0341
52.6171,60.9611
52.6000,60.8750
52.6000,60.1250
52.6171,60.0389
52.6659,59.9659
52.7389,59.9171
52.8250,59.9000
53.2750,59.9000
53.3611,59.9171
53.4341,59.9659
53.4829,60.0389
53.5000,60.1250
Z" /> 
<path style="fill:#C83434; fill-opacity:1.0000; stroke:none;fill-rule:evenodd;"
d="M 70.0500,56.1250
70.0671,56.0389
70.1159,55.9659
70.1889,55.9171
70.2750,55.9000
70.7250,55.9000
70.8111,55.9171
70.8841,55.9659
70.9329,56.0389
70.9500,56.1250
70.9500,56.8750
70.9329,56.9611
70.8841,57.0341
70.8111,57.0829
70.7250,57.1000
70.2750,57.1000
70.1889,57.0829
70.1159,57.0341
70.0671,56.9611
70.0500,56.8750
Z" /> 
<path style="fill:#C83434; fill-opacity:1.0000; stroke:none;fill-rule:evenodd;"
d="M 73.3500,56.1250
73.3671,56.0389
73.4159,55.9659
73.4889,55.9171
73.5750,55.9000
74.0250,55.9000
74.1111,55.9171
74.1841,55.9659
74.2329,56.0389
74.2500,56.1250
74.2500,56.8750
74.2329,56.9611
74.1841,57.0341
74.1111,57.0829
74.0250,57.1000
73.5750,57.1000
73.4889,57.0829
73.4159,57.0341
73.3671,56.9611
73.3500,56.8750
Z" /> 
<path style="fill:#C83434; fill-opacity:1.0000; stroke:none;fill-rule:evenodd;"
d="M 63.5550,74.6615
63.5550,76.1865
62.9050,76.1865
62.9050,74.6615
Z" /> 
<path style="fill:#C83434; fill-opacity:1.0000; stroke:none;fill-rule:evenodd;"
d="M 64.8250,74.6615
64.8250,76.1865
64.1750,76.1865
64.1750,74.6615
Z" /> 
<path style="fill:#C83434; fill-opacity:1.0000; stroke:none;fill-rule:evenodd;"
d="M 66.0950,74.6615
66.0950,76.1865
65.4450,76.1865
65.4450,74.6615
Z" /> 
<path style="fill:#C83434; fill-opacity:1.0000; stroke:none;fill-rule:evenodd;"
d="M 67.3650,74.6615
67.3650,76.1865
66.7150,76.1865
66.7150,74.6615
Z" /> 
<path style="fill:#C83434; fill-opacity:1.0000; stroke:none;fill-rule:evenodd;"
d="M 68.6350,74.6615
68.6350,76.1865
67.9850,76.1865
67.9850,74.6615
Z" /> 
<path style="fill:#C83434; fill-opacity:1.0000; stroke:none;fill-rule:evenodd;"
d="M 69.9050,74.6615
69.9050,76.1865
69.2550,76.1865
69.2550,74.6615
Z" /> 
<path style="fill:#C83434; fill-opacity:1.0000; stroke:none;fill-rule:evenodd;"
d="M 71.1750,74.6615
71.1750,76.1865
70.5250,76.1865
70.5250,74.6615
Z" /> 
<path style="fill:#C83434; fill-opacity:1.0000; stroke:none;fill-rule:evenodd;"
d="M 71.1750,69.2375
71.1750,70.7625
70.5250,70.7625
70.5250,69.2375
Z" /> 
<path style="fill:#C83434; fill-opacity:1.0000; stroke:none;fill-rule:evenodd;"
d="M 69.9050,69.2375
69.9050,70.7625
69.2550,70.7625
69.2550,69.2375
Z" /> 
<path style="fill:#C83434; fill-opacity:1.0000; stroke:none;fill-rule:evenodd;"
d="M 68.6350,69.2375
68.6350,70.7625
67.9850,70.7625
67.9850,69.2375
Z" /> 
<path style="fill:#C83434; fill-opacity:1.0000; stroke:none;fill-rule:evenodd;"
d="M 67.3650,69.2375
67.3650,70.7625
66.7150,70.7625
66.7150,69.2375
Z" /> 
<path style="fill:#C83434; fill-opacity:1.0000; stroke:none;fill-rule:evenodd;"
d="M 66.0950,69.2375
66.0950,70.7625
65.4450,70.7625
65.4450,69.2375
Z" /> 
<path style="fill:#C83434; fill-opacity:1.0000; stroke:none;fill-rule:evenodd;"
d="M 64.8250,69.2375
64.8250,70.7625
64.1750,70.7625
64.1750,69.2375
Z" /> 
<path style="fill:#C83434; fill-opacity:1.0000; stroke:none;fill-rule:evenodd;"
d="M 63.5550,69.2375
63.5550,70.7625
62.9050,70.7625
62.9050,69.2375
Z" /> 
<path style="fill:#C83434; fill-opacity:1.0000; stroke:none;fill-rule:evenodd;"
d="M 62.3500,53.3625
62.2543,53.3435
62.1732,53.2893
62.1190,53.2082
62.1000,53.1125
62.1000,52.4625
62.1190,52.3668
62.1732,52.2857
62.2543,52.2315
62.3500,52.2125
63.6500,52.2125
63.7457,52.2315
63.8268,52.2857
63.8810,52.3668
63.9000,52.4625
63.9000,53.1125
63.8810,53.2082
63.8268,53.2893
63.7457,53.3435
63.6500,53.3625
Z" /> 
<path style="fill:#C83434; fill-opacity:1.0000; stroke:none;fill-rule:evenodd;"
d="M 62.3500,50.4125
62.2543,50.3935
62.1732,50.3393
62.1190,50.2582
62.1000,50.1625
62.1000,49.5125
62.1190,49.4168
62.1732,49.3357
62.2543,49.2815
62.3500,49.2625
63.6500,49.2625
63.7457,49.2815
63.8268,49.3357
63.8810,49.4168
63.9000,49.5125
63.9000,50.1625
63.8810,50.2582
63.8268,50.3393
63.7457,50.3935
63.6500,50.4125
Z" /> 
<path style="fill:#C83434; fill-opacity:1.0000; stroke:none;fill-rule:evenodd;"
d="M 55.5250,44.1250
55.5060,44.2207
55.4518,44.3018
55.3707,44.3560
55.2750,44.3750
54.6500,44.3750
54.5543,44.3560
54.4732,44.3018
54.4190,44.2207
54.4000,44.1250
54.4000,42.8750
54.4190,42.7793
54.4732,42.6982
54.5543,42.6440
54.6500,42.6250
55.2750,42.6250
55.3707,42.6440
55.4518,42.6982
55.5060,42.7793
55.5250,42.8750
Z" /> 
<path style="fill:#C83434; fill-opacity:1.0000; stroke:none;fill-rule:evenodd;"
d="M 52.6000,44.1250
52.5810,44.2207
52.5268,44.3018
52.4457,44.3560
52.3500,44.3750
51.7250,44.3750
51.6293,44.3560
51.5482,44.3018
51.4940,44.2207
51.4750,44.1250
51.4750,42.8750
51.4940,42.7793
51.5482,42.6982
51.6293,42.6440
51.7250,42.6250
52.3500,42.6250
52.4457,42.6440
52.5268,42.6982
52.5810,42.7793
52.6000,42.8750
Z" /> 
<path style="fill:#C83434; fill-opacity:1.0000; stroke:none;fill-rule:evenodd;"
d="M 69.1333,60.8750
69.1162,60.9611
69.0674,61.0341
68.9944,61.0829
68.9083,61.1000
68.4583,61.1000
68.3722,61.0829
68.2992,61.0341
68.2505,60.9611
68.2333,60.8750
68.2333,60.1250
68.2505,60.0389
68.2992,59.9659
68.3722,59.9171
68.4583,59.9000
68.9083,59.9000
68.9944,59.9171
69.0674,59.9659
69.1162,60.0389
69.1333,60.1250
Z" /> 
<path style="fill:#C83434; fill-opacity:1.0000; stroke:none;fill-rule:evenodd;"
d="M 65.8333,60.8750
65.8162,60.9611
65.7674,61.0341
65.6944,61.0829
65.6083,61.1000
65.1583,61.1000
65.0722,61.0829
64.9992,61.0341
64.9505,60.9611
64.9333,60.8750
64.9333,60.1250
64.9505,60.0389
64.9992,59.9659
65.0722,59.9171
65.1583,59.9000
65.6083,59.9000
65.6944,59.9171
65.7674,59.9659
65.8162,60.0389
65.8333,60.1250
Z" /> 
<path style="fill:#C83434; fill-opacity:1.0000; stroke:none;fill-rule:evenodd;"
d="M 56.0500,75.5250
56.0690,75.4293
56.1232,75.3482
56.2043,75.2940
56.3000,75.2750
56.8000,75.2750
56.8957,75.2940
56.9768,75.3482
57.0310,75.4293
57.0500,75.5250
57.0500,76.4750
57.0310,76.5707
56.9768,76.6518
56.8957,76.7060
56.8000,76.7250
56.3000,76.7250
56.2043,76.7060
56.1232,76.6518
56.0690,76.5707
56.0500,76.4750
Z" /> 
<path style="fill:#C83434; fill-opacity:1.0000; stroke:none;fill-rule:evenodd;"
d="M 57.9500,75.5250
57.9690,75.4293
58.0232,75.3482
58.1043,75.2940
58.2000,75.2750
58.7000,75.2750
58.7957,75.2940
58.8768,75.3482
58.9310,75.4293
58.9500,75.5250
58.9500,76.4750
58.9310,76.5707
58.8768,76.6518
58.7957,76.7060
58.7000,76.7250
58.2000,76.7250
58.1043,76.7060
58.0232,76.6518
57.9690,76.5707
57.9500,76.4750
Z" /> 
<path style="fill:#C83434; fill-opacity:1.0000; stroke:none;fill-rule:evenodd;"
d="M 74.1500,68.9500
74.2457,68.9690
74.3268,69.0232
74.3810,69.1043
74.4000,69.2000
74.4000,69.8500
74.3810,69.9457
74.3268,70.0268
74.2457,70.0810
74.1500,70.1000
72.8500,70.1000
72.7543,70.0810
72.6732,70.0268
72.6190,69.9457
72.6000,69.8500
72.6000,69.2000
72.6190,69.1043
72.6732,69.0232
72.7543,68.9690
72.8500,68.9500
Z" /> 
<path style="fill:#C83434; fill-opacity:1.0000; stroke:none;fill-rule:evenodd;"
d="M 74.1500,71.9000
74.2457,71.9190
74.3268,71.9732
74.3810,72.0543
74.4000,72.1500
74.4000,72.8000
74.3810,72.8957
74.3268,72.9768
74.2457,73.0310
74.1500,73.0500
72.8500,73.0500
72.7543,73.0310
72.6732,72.9768
72.6190,72.8957
72.6000,72.8000
72.6000,72.1500
72.6190,72.0543
72.6732,71.9732
72.7543,71.9190
72.8500,71.9000
Z" /> 
<path style="fill:#C83434; fill-opacity:1.0000; stroke:none;fill-rule:evenodd;"
d="M 59.4000,56.1250
59.4171,56.0389
59.4659,55.9659
59.5389,55.9171
59.6250,55.9000
60.0750,55.9000
60.1611,55.9171
60.2341,55.9659
60.2829,56.0389
60.3000,56.1250
60.3000,56.8750
60.2829,56.9611
60.2341,57.0341
60.1611,57.0829
60.0750,57.1000
59.6250,57.1000
59.5389,57.0829
59.4659,57.0341
59.4171,56.9611
59.4000,56.8750
Z" /> 
<path style="fill:#C83434; fill-opacity:1.0000; stroke:none;fill-rule:evenodd;"
d="M 62.7000,56.1250
62.7171,56.0389
62.7659,55.9659
62.8389,55.9171
62.9250,55.9000
63.3750,55.9000
63.4611,55.9171
63.5341,55.9659
63.5829,56.0389
63.6000,56.1250
63.6000,56.8750
63.5829,56.9611
63.5341,57.0341
63.4611,57.0829
63.3750,57.1000
62.9250,57.1000
62.8389,57.0829
62.7659,57.0341
62.7171,56.9611
62.7000,56.8750
Z" /> 
<path style="fill:#C83434; fill-opacity:1.0000; stroke:none;fill-rule:evenodd;"
d="M 51.5125,51.8750
51.5315,51.7793
51.5857,51.6982
51.6668,51.6440
51.7625,51.6250
52.3875,51.6250
52.4832,51.6440
52.5643,51.6982
52.6185,51.7793
52.6375,51.8750
52.6375,53.1250
52.6185,53.2207
52.5643,53.3018
52.4832,53.3560
52.3875,53.3750
51.7625,53.3750
51.6668,53.3560
51.5857,53.3018
51.5315,53.2207
51.5125,53.1250
Z" /> 
<path style="fill:#C83434; fill-opacity:1.0000; stroke:none;fill-rule:evenodd;"
d="M 54.4375,51.8750
54.4565,51.7793
54.5107,51.6982
54.5918,51.6440
54.6875,51.6250
55.3125,51.6250
55.4082,51.6440
55.4893,51.6982
55.5435,51.7793
55.5625,51.8750
55.5625,53.1250
55.5435,53.2207
55.4893,53.3018
55.4082,53.3560
55.3125,53.3750
54.6875,53.3750
54.5918,53.3560
54.5107,53.3018
54.4565,53.2207
54.4375,53.1250
Z" /> 
<path style="fill:#C83434; fill-opacity:1.0000; stroke:none;fill-rule:evenodd;"
d="M 62.9667,60.8750
62.9495,60.9611
62.9008,61.0341
62.8278,61.0829
62.7417,61.1000
62.2917,61.1000
62.2056,61.0829
62.1326,61.0341
62.0838,60.9611
62.0667,60.8750
62.0667,60.1250
62.0838,60.0389
62.1326,59.9659
62.2056,59.9171
62.2917,59.9000
62.7417,59.9000
62.8278,59.9171
62.9008,59.9659
62.9495,60.0389
62.9667,60.1250
Z" /> 
<path style="fill:#C83434; fill-opacity:1.0000; stroke:none;fill-rule:evenodd;"
d="M 59.6667,60.8750
59.6495,60.9611
59.6008,61.0341
59.5278,61.0829
59.4417,61.1000
58.9917,61.1000
58.9056,61.0829
58.8326,61.0341
58.7838,60.9611
58.7667,60.8750
58.7667,60.1250
58.7838,60.0389
58.8326,59.9659
58.9056,59.9171
58.9917,59.9000
59.4417,59.9000
59.5278,59.9171
59.6008,59.9659
59.6495,60.0389
59.6667,60.1250
Z" /> 
<path style="fill:#C83434; fill-opacity:1.0000; stroke:none;fill-rule:evenodd;"
d="M 56.5000,81.2500
56.5190,81.1543
56.5732,81.0732
56.6543,81.0190
56.7500,81.0000
58.2500,81.0000
58.3457,81.0190
58.4268,81.0732
58.4810,81.1543
58.5000,81.2500
58.5000,82.7500
58.4810,82.8457
58.4268,82.9268
58.3457,82.9810
58.2500,83.0000
56.7500,83.0000
56.6543,82.9810
56.5732,82.9268
56.5190,82.8457
56.5000,82.7500
Z" /> 
<path style="fill:#C83434; fill-opacity:1.0000; stroke:none;fill-rule:evenodd;"
d="M 74.5000,64.9750
74.4810,65.0707
74.4268,65.1518
74.3457,65.2060
74.2500,65.2250
73.7500,65.2250
73.6543,65.2060
73.5732,65.1518
73.5190,65.0707
73.5000,64.9750
73.5000,64.0250
73.5190,63.9293
73.5732,63.8482
73.6543,63.7940
73.7500,63.7750
74.2500,63.7750
74.3457,63.7940
74.4268,63.8482
74.4810,63.9293
74.5000,64.0250
Z" /> 
<path style="fill:#C83434; fill-opacity:1.0000; stroke:none;fill-rule:evenodd;"
d="M 72.6000,64.9750
72.5810,65.0707
72.5268,65.1518
72.4457,65.2060
72.3500,65.2250
71.8500,65.2250
71.7543,65.2060
71.6732,65.1518
71.6190,65.0707
71.6000,64.9750
71.6000,64.0250
71.6190,63.9293
71.6732,63.8482
71.7543,63.7940
71.8500,63.7750
72.3500,63.7750
72.4457,63.7940
72.5268,63.8482
72.5810,63.9293
72.6000,64.0250
Z" /> 
<path style="fill:#C83434; fill-opacity:1.0000; stroke:none;fill-rule:evenodd;"
d="M 70.5750,49.5500
70.5940,49.4543
70.6482,49.3732
70.7293,49.3190
70.8250,49.3000
71.3500,49.3000
71.4457,49.3190
71.5268,49.3732
71.5810,49.4543
71.6000,49.5500
71.6000,50.4500
71.5810,50.5457
71.5268,50.6268
71.4457,50.6810
71.3500,50.7000
70.8250,50.7000
70.7293,50.6810
70.6482,50.6268
70.5940,50.5457
70.5750,50.4500
Z" /> 
<path style="fill:#C83434; fill-opacity:1.0000; stroke:none;fill-rule:evenodd;"
d="M 72.4000,49.5500
72.4190,49.4543
72.4732,49.3732
72.5543,49.3190
72.6500,49.3000
73.1750,49.3000
73.2707,49.3190
73.3518,49.3732
73.4060,49.4543
73.4250,49.5500
73.4250,50.4500
73.4060,50.5457
73.3518,50.6268
73.2707,50.6810
73.1750,50.7000
72.6500,50.7000
72.5543,50.6810
72.4732,50.6268
72.4190,50.5457
72.4000,50.4500
Z" /> 
</g>
<g style="fill:#C83434; fill-opacity:1.0000; stroke:none;">
<circle cx="73.0000" cy="36.0000" r="1.0000" /> 
<path style="fill:#C83434; fill-opacity:1.0000; stroke:none;fill-rule:evenodd;"
d="M 58.3500,53.3000
58.2543,53.2810
58.1732,53.2268
58.1190,53.1457
58.1000,53.0500
58.1000,52.4000
58.1190,52.3043
58.1732,52.2232
58.2543,52.1690
58.3500,52.1500
59.6500,52.1500
59.7457,52.1690
59.8268,52.2232
59.8810,52.3043
59.9000,52.4000
59.9000,53.0500
59.8810,53.1457
59.8268,53.2268
59.7457,53.2810
59.6500,53.3000
Z" /> 
<path style="fill:#C83434; fill-opacity:1.0000; stroke:none;fill-rule:evenodd;"
d="M 58.3500,50.3500
58.2543,50.3310
58.1732,50.2768
58.1190,50.1957
58.1000,50.1000
58.1000,49.4500
58.1190,49.3543
58.1732,49.2732
58.2543,49.2190
58.3500,49.2000
59.6500,49.2000
59.7457,49.2190
59.8268,49.2732
59.8810,49.3543
59.9000,49.4500
59.9000,50.1000
59.8810,50.1957
59.8268,50.2768
59.7457,50.3310
59.6500,50.3500
Z" /> 
<path style="fill:#C83434; fill-opacity:1.0000; stroke:none;fill-rule:evenodd;"
d="M 70.4250,78.3740
70.4060,78.4697
70.3518,78.5508
70.2707,78.6050
70.1750,78.6240
69.6500,78.6240
69.5543,78.6050
69.4732,78.5508
69.4190,78.4697
69.4000,78.3740
69.4000,77.4740
69.4190,77.3783
69.4732,77.2972
69.5543,77.2430
69.6500,77.2240
70.1750,77.2240
70.2707,77.2430
70.3518,77.2972
70.4060,77.3783
70.4250,77.4740
Z" /> 
<path style="fill:#C83434; fill-opacity:1.0000; stroke:none;fill-rule:evenodd;"
d="M 68.6000,78.3740
68.5810,78.4697
68.5268,78.5508
68.4457,78.6050
68.3500,78.6240
67.8250,78.6240
67.7293,78.6050
67.6482,78.5508
67.5940,78.4697
67.5750,78.3740
67.5750,77.4740
67.5940,77.3783
67.6482,77.2972
67.7293,77.2430
67.8250,77.2240
68.3500,77.2240
68.4457,77.2430
68.5268,77.2972
68.5810,77.3783
68.6000,77.4740
Z" /> 
<path style="fill:#C83434; fill-opacity:1.0000; stroke:none;fill-rule:evenodd;"
d="M 70.5500,52.0250
70.5690,51.9293
70.6232,51.8482
70.7043,51.7940
70.8000,51.7750
71.3000,51.7750
71.3957,51.7940
71.4768,51.8482
71.5310,51.9293
71.5500,52.0250
71.5500,52.9750
71.5310,53.0707
71.4768,53.1518
71.3957,53.2060
71.3000,53.2250
70.8000,53.2250
70.7043,53.2060
70.6232,53.1518
70.5690,53.0707
70.5500,52.9750
Z" /> 
<path style="fill:#C83434; fill-opacity:1.0000; stroke:none;fill-rule:evenodd;"
d="M 72.4500,52.0250
72.4690,51.9293
72.5232,51.8482
72.6043,51.7940
72.7000,51.7750
73.2000,51.7750
73.2957,51.7940
73.3768,51.8482
73.4310,51.9293
73.4500,52.0250
73.4500,52.9750
73.4310,53.0707
73.3768,53.1518
73.2957,53.2060
73.2000,53.2250
72.7000,53.2250
72.6043,53.2060
72.5232,53.1518
72.4690,53.0707
72.4500,52.9750
Z" /> 
<path style="fill:#C83434; fill-opacity:1.0000; stroke:none;fill-rule:evenodd;"
d="M 52.4500,79.6000
52.3543,79.5810
52.2732,79.5268
52.2190,79.4457
52.2000,79.3500
52.2000,77.2500
52.2190,77.1543
52.2732,77.0732
52.3543,77.0190
52.4500,77.0000
53.5500,77.0000
53.6457,77.0190
53.7268,77.0732
53.7810,77.1543
53.8000,77.2500
53.8000,79.3500
53.7810,79.4457
53.7268,79.5268
53.6457,79.5810
53.5500,79.6000
Z" /> 
<path style="fill:#C83434; fill-opacity:1.0000; stroke:none;fill-rule:evenodd;"
d="M 52.4500,76.0000
52.3543,75.9810
52.2732,75.9268
52.2190,75.8457
52.2000,75.7500
52.2000,73.6500
52.2190,73.5543
52.2732,73.4732
52.3543,73.4190
52.4500,73.4000
53.5500,73.4000
53.6457,73.4190
53.7268,73.4732
53.7810,73.5543
53.8000,73.6500
53.8000,75.7500
53.7810,75.8457
53.7268,75.9268
53.6457,75.9810
53.5500,76.0000
Z" /> 
<path style="fill:#C83434; fill-opacity:1.0000; stroke:none;fill-rule:evenodd;"
d="M 55.4000,71.6250
55.4171,71.5389
55.4659,71.4659
55.5389,71.4171
55.6250,71.4000
56.0750,71.4000
56.1611,71.4171
56.2341,71.4659
56.2829,71.5389
56.3000,71.6250
56.3000,72.3750
56.2829,72.4611
56.2341,72.5341
56.1611,72.5829
56.0750,72.6000
55.6250,72.6000
55.5389,72.5829
55.4659,72.5341
55.4171,72.4611
55.4000,72.3750
Z" /> 
<path style="fill:#C83434; fill-opacity:1.0000; stroke:none;fill-rule:evenodd;"
d="M 58.7000,71.6250
58.7171,71.5389
58.7659,71.4659
58.8389,71.4171
58.9250,71.4000
59.3750,71.4000
59.4611,71.4171
59.5341,71.4659
59.5829,71.5389
59.6000,71.6250
59.6000,72.3750
59.5829,72.4611
59.5341,72.5341
59.4611,72.5829
59.3750,72.6000
58.9250,72.6000
58.8389,72.5829
58.7659,72.5341
58.7171,72.4611
58.7000,72.3750
Z" /> 
<path style="fill:#C83434; fill-opacity:1.0000; stroke:none;fill-rule:evenodd;"
d="M 56.0000,64.9750
55.9810,65.0707
55.9268,65.1518
55.8457,65.2060
55.7500,65.2250
55.2500,65.2250
55.1543,65.2060
55.0732,65.1518
55.0190,65.0707
55.0000,64.9750
55.0000,64.0250
55.0190,63.9293
55.0732,63.8482
55.1543,63.7940
55.2500,63.7750
55.7500,63.7750
55.8457,63.7940
55.9268,63.8482
55.9810,63.9293
56.0000,64.0250
Z" /> 
<path style="fill:#C83434; fill-opacity:1.0000; stroke:none;fill-rule:evenodd;"
d="M 54.1000,64.9750
54.0810,65.0707
54.0268,65.1518
53.9457,65.2060
53.8500,65.2250
53.3500,65.2250
53.2543,65.2060
53.1732,65.1518
53.1190,65.0707
53.1000,64.9750
53.1000,64.0250
53.1190,63.9293
53.1732,63.8482
53.2543,63.7940
53.3500,63.7750
53.8500,63.7750
53.9457,63.7940
54.0268,63.8482
54.0810,63.9293
54.1000,64.0250
Z" /> 
<path style="fill:#C83434; fill-opacity:1.0000; stroke:none;fill-rule:evenodd;"
d="M 68.3333,64.9750
68.3143,65.0707
68.2601,65.1518
68.1790,65.2060
68.0833,65.2250
67.5833,65.2250
67.4877,65.2060
67.4066,65.1518
67.3524,65.0707
67.3333,64.9750
67.3333,64.0250
67.3524,63.9293
67.4066,63.8482
67.4877,63.7940
67.5833,63.7750
68.0833,63.7750
68.1790,63.7940
68.2601,63.8482
68.3143,63.9293
68.3333,64.0250
Z" /> 
<path style="fill:#C83434; fill-opacity:1.0000; stroke:none;fill-rule:evenodd;"
d="M 66.4333,64.9750
66.4143,65.0707
66.3601,65.1518
66.2790,65.2060
66.1833,65.2250
65.6833,65.2250
65.5877,65.2060
65.5066,65.1518
65.4524,65.0707
65.4333,64.9750
65.4333,64.0250
65.4524,63.9293
65.5066,63.8482
65.5877,63.7940
65.6833,63.7750
66.1833,63.7750
66.2790,63.7940
66.3601,63.8482
66.4143,63.9293
66.4333,64.0250
Z" /> 
</g>
<g style="fill:#C83434; fill-opacity:1.0000; stroke:none;">
<circle cx="63.2993" cy="71.9507" r="0.3000" /> 
</g>
<g style="fill:#C83434; fill-opacity:1.0000; stroke:none;">
<circle cx="71.0000" cy="72.0000" r="0.3000" /> 
</g>
<g style="fill:#C83434; fill-opacity:1.0000; stroke:none;">
<circle cx="60.0000" cy="72.0000" r="0.3000" /> 
</g>
<g style="fill:#C83434; fill-opacity:1.0000; stroke:none;">
<circle cx="68.2500" cy="74.0000" r="0.3000" /> 
</g>
<g style="fill:#C83434; fill-opacity:1.0000; stroke:none;">
<circle cx="73.5000" cy="74.0000" r="0.3000" /> 
</g>
<g style="fill:#C83434; fill-opacity:1.0000; stroke:none;">
<circle cx="67.5000" cy="51.0000" r="0.3000" /> 
</g>
<g style="fill:#C83434; fill-opacity:1.0000; stroke:none;">
<circle cx="69.5000" cy="68.5000" r="0.3000" /> 
</g>
<g style="fill:#C83434; fill-opacity:1.0000; stroke:none;">
<circle cx="67.0000" cy="68.5000" r="0.3000" /> 
</g>
<g style="fill:#C83434; fill-opacity:1.0000; stroke:none;">
<circle cx="69.0000" cy="55.0000" r="0.3000" /> 
</g>
<g style="fill:#C83434; fill-opacity:1.0000; stroke:none;">
<circle cx="70.5000" cy="57.8000" r="0.3000" /> 
</g>
<g style="fill:#C83434; fill-opacity:1.0000; stroke:none;">
<circle cx="73.0000" cy="54.5000" r="0.3000" /> 
</g>
<g style="fill:#C83434; fill-opacity:1.0000; stroke:none;">
<circle cx="65.7500" cy="68.5000" r="0.3000" /> 
</g>
<g style="fill:#C83434; fill-opacity:1.0000; stroke:none;">
<circle cx="63.2000" cy="74.0000" r="0.3000" /> 
</g>
<g style="fill:#C83434; fill-opacity:1.0000; stroke:none;">
<circle cx="67.0000" cy="74.0000" r="0.3000" /> 
</g>
<g style="fill:#C83434; fill-opacity:1.0000; stroke:none;">
<circle cx="71.8000" cy="75.0000" r="0.3000" /> 
</g>
<g style="fill:#C83434; fill-opacity:1.0000; stroke:none;">
<circle cx="50.5000" cy="61.5000" r="0.3000" /> 
</g>
<g style="fill:#C83434; fill-opacity:1.0000; stroke:none;">
<circle cx="51.5000" cy="73.5000" r="0.3000" /> 
</g>
<g style="fill:#C83434; fill-opacity:1.0000; stroke:none;">
<circle cx="73.5000" cy="80.0000" r="0.3000" /> 
</g>
<g style="fill:#C83434; fill-opacity:1.0000; stroke:none;">
<circle cx="66.0000" cy="56.5000" r="0.3000" /> 
</g> 
</svg>
