<?xml version="1.0" standalone="no"?>
 <!DOCTYPE svg PUBLIC "-//W3C//DTD SVG 1.1//EN" 
 "http://www.w3.org/Graphics/SVG/1.1/DTD/svg11.dtd"> 
<svg
  xmlns:svg="http://www.w3.org/2000/svg"
  xmlns="http://www.w3.org/2000/svg"
  xmlns:xlink="http://www.w3.org/1999/xlink"
  version="1.1"
  width="297.0022mm" height="210.0072mm" viewBox="0.0000 0.0000 297.0022 210.0072">
<title>SVG Image created as LDC_mic_volt-mult-Edge_Cuts.svg date 2026/01/26 16:12:27 </title>
  <desc>Image generated by PCBNEW </desc>
<g style="fill:#000000; fill-opacity:1.0000;stroke:#000000; stroke-opacity:1.0000;
stroke-linecap:round; stroke-linejoin:round;"
 transform="translate(0 0) scale(1 1)">
</g>
<g style="fill:none; 
stroke:#D0D2CD; stroke-width:0.2000; stroke-opacity:1; 
stroke-linecap:round; stroke-linejoin:round;">
<path d="M81.9372 60.7180 A1.0000 1.0000 0.0 0 0 80.9379 59.6800" />
<path d="M48.8340 56.9800
L46.6513 56.9800
" />
<path d="M46.6339 81.8300 A3.0000 3.0000 0.0 0 0 49.6318 84.7159" />
<path d="M78.1362 84.7159 A3.0000 3.0000 0.0 0 0 81.1340 81.8300" />
<path d="M48.8340 59.6800
L46.8301 59.6800
" />
<path d="M78.9340 59.6800
L80.9379 59.6800
" />
<path d="M47.8818 32.7159 A3.0000 3.0000 0.0 0 0 44.8840 35.8300" />
<path d="M45.6520 56.0180
L44.8840 35.8300
" />
<path d="M46.8301 59.6800 A1.0000 1.0000 0.0 0 0 45.8308 60.7180" />
<path d="M45.6520 56.0180
L45.6520 56.0180
" />
<path d="M82.8840 35.8300 A3.0000 3.0000 0.0 0 0 79.8862 32.7159" />
<path d="M45.6520 56.0180 A1.0000 1.0000 0.0 0 0 46.6513 56.9800" />
<path d="M78.9340 56.9800 A1.3500 1.3500 0.0 1 0 78.9340 59.6800" />
<path d="M78.9340 56.9800
L81.1167 56.9800
" />
<path d="M49.6318 84.7159
L78.1362 84.7159
" />
<path d="M48.8340 59.6800 A1.3500 1.3500 0.0 0 0 48.8340 56.9800" />
<path d="M81.1340 81.8300
L81.9372 60.7180
" />
<path d="M45.8308 60.7180
L45.8308 60.7180
" />
<path d="M47.8818 32.7159
L79.8862 32.7159
" />
<path d="M82.1160 56.0180
L82.1160 56.0180
" />
<path d="M82.1160 56.0180
L82.8840 35.8300
" />
<path d="M46.6340 81.8300
L45.8308 60.7180
" />
<path d="M81.1167 56.9800 A1.0000 1.0000 0.0 0 0 82.1160 56.0180" />
</g> 
</svg>
