<?xml version="1.0" standalone="no"?>
 <!DOCTYPE svg PUBLIC "-//W3C//DTD SVG 1.1//EN" 
 "http://www.w3.org/Graphics/SVG/1.1/DTD/svg11.dtd"> 
<svg
  xmlns:svg="http://www.w3.org/2000/svg"
  xmlns="http://www.w3.org/2000/svg"
  xmlns:xlink="http://www.w3.org/1999/xlink"
  version="1.1"
  width="297.0022mm" height="210.0072mm" viewBox="0.0000 0.0000 297.0022 210.0072">
<title>SVG Image created as LDC_mic_volt-mult-F_Silkscreen.svg date 2026/01/25 17:33:50 </title>
  <desc>Image generated by PCBNEW </desc>
<g style="fill:#000000; fill-opacity:1.0000;stroke:#000000; stroke-opacity:1.0000;
stroke-linecap:round; stroke-linejoin:round;"
 transform="translate(0 0) scale(1 1)">
</g>
<g style="fill:none; 
stroke:#F2EDA1; stroke-width:0.1000; stroke-opacity:1; 
stroke-linecap:round; stroke-linejoin:round;">
<text x="67.6373" y="46.5000"
textLength="8.8638" font-size="1.0667" lengthAdjust="spacingAndGlyphs"
text-anchor="start" opacity="0" stroke-opacity="0">mic-bias v2.0</text>
<g class="stroked-text"><desc>mic-bias v2.0</desc>
<path d="M67.8936 46.3969
L67.8936 45.8636
" />
<path d="M67.8936 45.9398
L67.9317 45.9017
" />
<path d="M67.9317 45.9017
L68.0079 45.8636
" />
<path d="M68.0079 45.8636
L68.1222 45.8636
" />
<path d="M68.1222 45.8636
L68.1984 45.9017
" />
<path d="M68.1984 45.9017
L68.2365 45.9778
" />
<path d="M68.2365 45.9778
L68.2365 46.3969
" />
<path d="M68.2365 45.9778
L68.2746 45.9017
" />
<path d="M68.2746 45.9017
L68.3508 45.8636
" />
<path d="M68.3508 45.8636
L68.4650 45.8636
" />
<path d="M68.4650 45.8636
L68.5412 45.9017
" />
<path d="M68.5412 45.9017
L68.5793 45.9778
" />
<path d="M68.5793 45.9778
L68.5793 46.3969
" />
<path d="M68.9603 46.3969
L68.9603 45.8636
" />
<path d="M68.9603 45.5969
L68.9222 45.6350
" />
<path d="M68.9222 45.6350
L68.9603 45.6731
" />
<path d="M68.9603 45.6731
L68.9984 45.6350
" />
<path d="M68.9984 45.6350
L68.9603 45.5969
" />
<path d="M68.9603 45.5969
L68.9603 45.6731
" />
<path d="M69.6841 46.3588
L69.6079 46.3969
" />
<path d="M69.6079 46.3969
L69.4555 46.3969
" />
<path d="M69.4555 46.3969
L69.3793 46.3588
" />
<path d="M69.3793 46.3588
L69.3412 46.3207
" />
<path d="M69.3412 46.3207
L69.3031 46.2445
" />
<path d="M69.3031 46.2445
L69.3031 46.0159
" />
<path d="M69.3031 46.0159
L69.3412 45.9398
" />
<path d="M69.3412 45.9398
L69.3793 45.9017
" />
<path d="M69.3793 45.9017
L69.4555 45.8636
" />
<path d="M69.4555 45.8636
L69.6079 45.8636
" />
<path d="M69.6079 45.8636
L69.6841 45.9017
" />
<path d="M70.0269 46.0921
L70.6365 46.0921
" />
<path d="M71.0174 46.3969
L71.0174 45.5969
" />
<path d="M71.0174 45.9017
L71.0936 45.8636
" />
<path d="M71.0936 45.8636
L71.2460 45.8636
" />
<path d="M71.2460 45.8636
L71.3222 45.9017
" />
<path d="M71.3222 45.9017
L71.3603 45.9398
" />
<path d="M71.3603 45.9398
L71.3984 46.0159
" />
<path d="M71.3984 46.0159
L71.3984 46.2445
" />
<path d="M71.3984 46.2445
L71.3603 46.3207
" />
<path d="M71.3603 46.3207
L71.3222 46.3588
" />
<path d="M71.3222 46.3588
L71.2460 46.3969
" />
<path d="M71.2460 46.3969
L71.0936 46.3969
" />
<path d="M71.0936 46.3969
L71.0174 46.3588
" />
<path d="M71.7412 46.3969
L71.7412 45.8636
" />
<path d="M71.7412 45.5969
L71.7031 45.6350
" />
<path d="M71.7031 45.6350
L71.7412 45.6731
" />
<path d="M71.7412 45.6731
L71.7793 45.6350
" />
<path d="M71.7793 45.6350
L71.7412 45.5969
" />
<path d="M71.7412 45.5969
L71.7412 45.6731
" />
<path d="M72.4650 46.3969
L72.4650 45.9778
" />
<path d="M72.4650 45.9778
L72.4269 45.9017
" />
<path d="M72.4269 45.9017
L72.3508 45.8636
" />
<path d="M72.3508 45.8636
L72.1984 45.8636
" />
<path d="M72.1984 45.8636
L72.1222 45.9017
" />
<path d="M72.4650 46.3588
L72.3888 46.3969
" />
<path d="M72.3888 46.3969
L72.1984 46.3969
" />
<path d="M72.1984 46.3969
L72.1222 46.3588
" />
<path d="M72.1222 46.3588
L72.0841 46.2826
" />
<path d="M72.0841 46.2826
L72.0841 46.2064
" />
<path d="M72.0841 46.2064
L72.1222 46.1302
" />
<path d="M72.1222 46.1302
L72.1984 46.0921
" />
<path d="M72.1984 46.0921
L72.3888 46.0921
" />
<path d="M72.3888 46.0921
L72.4650 46.0540
" />
<path d="M72.8079 46.3588
L72.8841 46.3969
" />
<path d="M72.8841 46.3969
L73.0365 46.3969
" />
<path d="M73.0365 46.3969
L73.1127 46.3588
" />
<path d="M73.1127 46.3588
L73.1508 46.2826
" />
<path d="M73.1508 46.2826
L73.1508 46.2445
" />
<path d="M73.1508 46.2445
L73.1127 46.1683
" />
<path d="M73.1127 46.1683
L73.0365 46.1302
" />
<path d="M73.0365 46.1302
L72.9222 46.1302
" />
<path d="M72.9222 46.1302
L72.8460 46.0921
" />
<path d="M72.8460 46.0921
L72.8079 46.0159
" />
<path d="M72.8079 46.0159
L72.8079 45.9778
" />
<path d="M72.8079 45.9778
L72.8460 45.9017
" />
<path d="M72.8460 45.9017
L72.9222 45.8636
" />
<path d="M72.9222 45.8636
L73.0365 45.8636
" />
<path d="M73.0365 45.8636
L73.1127 45.9017
" />
<path d="M74.0269 45.8636
L74.2174 46.3969
" />
<path d="M74.2174 46.3969
L74.4079 45.8636
" />
<path d="M74.6746 45.6731
L74.7127 45.6350
" />
<path d="M74.7127 45.6350
L74.7888 45.5969
" />
<path d="M74.7888 45.5969
L74.9793 45.5969
" />
<path d="M74.9793 45.5969
L75.0555 45.6350
" />
<path d="M75.0555 45.6350
L75.0936 45.6731
" />
<path d="M75.0936 45.6731
L75.1317 45.7493
" />
<path d="M75.1317 45.7493
L75.1317 45.8255
" />
<path d="M75.1317 45.8255
L75.0936 45.9398
" />
<path d="M75.0936 45.9398
L74.6365 46.3969
" />
<path d="M74.6365 46.3969
L75.1317 46.3969
" />
<path d="M75.4746 46.3207
L75.5127 46.3588
" />
<path d="M75.5127 46.3588
L75.4746 46.3969
" />
<path d="M75.4746 46.3969
L75.4365 46.3588
" />
<path d="M75.4365 46.3588
L75.4746 46.3207
" />
<path d="M75.4746 46.3207
L75.4746 46.3969
" />
<path d="M76.0079 45.5969
L76.0841 45.5969
" />
<path d="M76.0841 45.5969
L76.1603 45.6350
" />
<path d="M76.1603 45.6350
L76.1984 45.6731
" />
<path d="M76.1984 45.6731
L76.2365 45.7493
" />
<path d="M76.2365 45.7493
L76.2746 45.9017
" />
<path d="M76.2746 45.9017
L76.2746 46.0921
" />
<path d="M76.2746 46.0921
L76.2365 46.2445
" />
<path d="M76.2365 46.2445
L76.1984 46.3207
" />
<path d="M76.1984 46.3207
L76.1603 46.3588
" />
<path d="M76.1603 46.3588
L76.0841 46.3969
" />
<path d="M76.0841 46.3969
L76.0079 46.3969
" />
<path d="M76.0079 46.3969
L75.9317 46.3588
" />
<path d="M75.9317 46.3588
L75.8936 46.3207
" />
<path d="M75.8936 46.3207
L75.8555 46.2445
" />
<path d="M75.8555 46.2445
L75.8174 46.0921
" />
<path d="M75.8174 46.0921
L75.8174 45.9017
" />
<path d="M75.8174 45.9017
L75.8555 45.7493
" />
<path d="M75.8555 45.7493
L75.8936 45.6731
" />
<path d="M75.8936 45.6731
L75.9317 45.6350
" />
<path d="M75.9317 45.6350
L76.0079 45.5969
" />
</g></g>
<g style="fill:none; 
stroke:#F2EDA1; stroke-width:0.1500; stroke-opacity:1; 
stroke-linecap:round; stroke-linejoin:round;">
<text x="60.6667" y="67.0000"
textLength="2.2024" font-size="1.3333" lengthAdjust="spacingAndGlyphs"
text-anchor="middle" opacity="0" stroke-opacity="0">C3</text>
<g class="stroked-text"><desc>C3</desc>
<path d="M60.5000 66.8596
L60.4524 66.9072
" />
<path d="M60.4524 66.9072
L60.3095 66.9548
" />
<path d="M60.3095 66.9548
L60.2143 66.9548
" />
<path d="M60.2143 66.9548
L60.0714 66.9072
" />
<path d="M60.0714 66.9072
L59.9762 66.8120
" />
<path d="M59.9762 66.8120
L59.9286 66.7167
" />
<path d="M59.9286 66.7167
L59.8810 66.5262
" />
<path d="M59.8810 66.5262
L59.8810 66.3834
" />
<path d="M59.8810 66.3834
L59.9286 66.1929
" />
<path d="M59.9286 66.1929
L59.9762 66.0977
" />
<path d="M59.9762 66.0977
L60.0714 66.0024
" />
<path d="M60.0714 66.0024
L60.2143 65.9548
" />
<path d="M60.2143 65.9548
L60.3095 65.9548
" />
<path d="M60.3095 65.9548
L60.4524 66.0024
" />
<path d="M60.4524 66.0024
L60.5000 66.0501
" />
<path d="M60.8333 65.9548
L61.4524 65.9548
" />
<path d="M61.4524 65.9548
L61.1190 66.3358
" />
<path d="M61.1190 66.3358
L61.2619 66.3358
" />
<path d="M61.2619 66.3358
L61.3571 66.3834
" />
<path d="M61.3571 66.3834
L61.4048 66.4310
" />
<path d="M61.4048 66.4310
L61.4524 66.5262
" />
<path d="M61.4524 66.5262
L61.4524 66.7643
" />
<path d="M61.4524 66.7643
L61.4048 66.8596
" />
<path d="M61.4048 66.8596
L61.3571 66.9072
" />
<path d="M61.3571 66.9072
L61.2619 66.9548
" />
<path d="M61.2619 66.9548
L60.9762 66.9548
" />
<path d="M60.9762 66.9548
L60.8810 66.9072
" />
<path d="M60.8810 66.9072
L60.8333 66.8596
" />
</g><text x="73.2000" y="63.0000"
textLength="2.2024" font-size="1.3333" lengthAdjust="spacingAndGlyphs"
text-anchor="middle" opacity="0" stroke-opacity="0">D5</text>
<g class="stroked-text"><desc>D5</desc>
<path d="M72.4619 62.9548
L72.4619 61.9548
" />
<path d="M72.4619 61.9548
L72.7000 61.9548
" />
<path d="M72.7000 61.9548
L72.8429 62.0024
" />
<path d="M72.8429 62.0024
L72.9381 62.0977
" />
<path d="M72.9381 62.0977
L72.9857 62.1929
" />
<path d="M72.9857 62.1929
L73.0333 62.3834
" />
<path d="M73.0333 62.3834
L73.0333 62.5262
" />
<path d="M73.0333 62.5262
L72.9857 62.7167
" />
<path d="M72.9857 62.7167
L72.9381 62.8120
" />
<path d="M72.9381 62.8120
L72.8429 62.9072
" />
<path d="M72.8429 62.9072
L72.7000 62.9548
" />
<path d="M72.7000 62.9548
L72.4619 62.9548
" />
<path d="M73.9381 61.9548
L73.4619 61.9548
" />
<path d="M73.4619 61.9548
L73.4143 62.4310
" />
<path d="M73.4143 62.4310
L73.4619 62.3834
" />
<path d="M73.4619 62.3834
L73.5571 62.3358
" />
<path d="M73.5571 62.3358
L73.7952 62.3358
" />
<path d="M73.7952 62.3358
L73.8905 62.3834
" />
<path d="M73.8905 62.3834
L73.9381 62.4310
" />
<path d="M73.9381 62.4310
L73.9857 62.5262
" />
<path d="M73.9857 62.5262
L73.9857 62.7643
" />
<path d="M73.9857 62.7643
L73.9381 62.8596
" />
<path d="M73.9381 62.8596
L73.8905 62.9072
" />
<path d="M73.8905 62.9072
L73.7952 62.9548
" />
<path d="M73.7952 62.9548
L73.5571 62.9548
" />
<path d="M73.5571 62.9548
L73.4619 62.9072
" />
<path d="M73.4619 62.9072
L73.4143 62.8596
" />
</g><text x="68.5000" y="82.5000"
textLength="3.2976" font-size="1.3333" lengthAdjust="spacingAndGlyphs"
text-anchor="middle" opacity="0" stroke-opacity="0">GND</text>
<g class="stroked-text"><desc>GND</desc>
<path d="M67.7381 81.5024
L67.6429 81.4548
" />
<path d="M67.6429 81.4548
L67.5000 81.4548
" />
<path d="M67.5000 81.4548
L67.3571 81.5024
" />
<path d="M67.3571 81.5024
L67.2619 81.5977
" />
<path d="M67.2619 81.5977
L67.2143 81.6929
" />
<path d="M67.2143 81.6929
L67.1667 81.8834
" />
<path d="M67.1667 81.8834
L67.1667 82.0262
" />
<path d="M67.1667 82.0262
L67.2143 82.2167
" />
<path d="M67.2143 82.2167
L67.2619 82.3120
" />
<path d="M67.2619 82.3120
L67.3571 82.4072
" />
<path d="M67.3571 82.4072
L67.5000 82.4548
" />
<path d="M67.5000 82.4548
L67.5952 82.4548
" />
<path d="M67.5952 82.4548
L67.7381 82.4072
" />
<path d="M67.7381 82.4072
L67.7857 82.3596
" />
<path d="M67.7857 82.3596
L67.7857 82.0262
" />
<path d="M67.7857 82.0262
L67.5952 82.0262
" />
<path d="M68.2143 82.4548
L68.2143 81.4548
" />
<path d="M68.2143 81.4548
L68.7857 82.4548
" />
<path d="M68.7857 82.4548
L68.7857 81.4548
" />
<path d="M69.2619 82.4548
L69.2619 81.4548
" />
<path d="M69.2619 81.4548
L69.5000 81.4548
" />
<path d="M69.5000 81.4548
L69.6429 81.5024
" />
<path d="M69.6429 81.5024
L69.7381 81.5977
" />
<path d="M69.7381 81.5977
L69.7857 81.6929
" />
<path d="M69.7857 81.6929
L69.8333 81.8834
" />
<path d="M69.8333 81.8834
L69.8333 82.0262
" />
<path d="M69.8333 82.0262
L69.7857 82.2167
" />
<path d="M69.7857 82.2167
L69.7381 82.3120
" />
<path d="M69.7381 82.3120
L69.6429 82.4072
" />
<path d="M69.6429 82.4072
L69.5000 82.4548
" />
<path d="M69.5000 82.4548
L69.2619 82.4548
" />
</g><text x="49.9625" y="50.0000"
textLength="2.2024" font-size="1.3333" lengthAdjust="spacingAndGlyphs"
text-anchor="middle" opacity="0" stroke-opacity="0">R3</text>
<g class="stroked-text"><desc>R3</desc>
<path d="M49.7958 49.9548
L49.4625 49.4786
" />
<path d="M49.2244 49.9548
L49.2244 48.9548
" />
<path d="M49.2244 48.9548
L49.6054 48.9548
" />
<path d="M49.6054 48.9548
L49.7006 49.0024
" />
<path d="M49.7006 49.0024
L49.7482 49.0501
" />
<path d="M49.7482 49.0501
L49.7958 49.1453
" />
<path d="M49.7958 49.1453
L49.7958 49.2882
" />
<path d="M49.7958 49.2882
L49.7482 49.3834
" />
<path d="M49.7482 49.3834
L49.7006 49.4310
" />
<path d="M49.7006 49.4310
L49.6054 49.4786
" />
<path d="M49.6054 49.4786
L49.2244 49.4786
" />
<path d="M50.1292 48.9548
L50.7482 48.9548
" />
<path d="M50.7482 48.9548
L50.4149 49.3358
" />
<path d="M50.4149 49.3358
L50.5577 49.3358
" />
<path d="M50.5577 49.3358
L50.6530 49.3834
" />
<path d="M50.6530 49.3834
L50.7006 49.4310
" />
<path d="M50.7006 49.4310
L50.7482 49.5262
" />
<path d="M50.7482 49.5262
L50.7482 49.7643
" />
<path d="M50.7482 49.7643
L50.7006 49.8596
" />
<path d="M50.7006 49.8596
L50.6530 49.9072
" />
<path d="M50.6530 49.9072
L50.5577 49.9548
" />
<path d="M50.5577 49.9548
L50.2720 49.9548
" />
<path d="M50.2720 49.9548
L50.1768 49.9072
" />
<path d="M50.1768 49.9072
L50.1292 49.8596
" />
</g><g transform="rotate(-90.000000 75.3500 76.9240)">
<text x="75.3500" y="77.4240"
textLength="2.2024" font-size="1.3333" lengthAdjust="spacingAndGlyphs"
text-anchor="middle" opacity="0" stroke-opacity="0">C7</text>
</g>
<g class="stroked-text"><desc>C7</desc>
<path d="M75.7096 77.0907
L75.7572 77.1383
" />
<path d="M75.7572 77.1383
L75.8048 77.2811
" />
<path d="M75.8048 77.2811
L75.8048 77.3764
" />
<path d="M75.8048 77.3764
L75.7572 77.5192
" />
<path d="M75.7572 77.5192
L75.6620 77.6145
" />
<path d="M75.6620 77.6145
L75.5667 77.6621
" />
<path d="M75.5667 77.6621
L75.3762 77.7097
" />
<path d="M75.3762 77.7097
L75.2334 77.7097
" />
<path d="M75.2334 77.7097
L75.0429 77.6621
" />
<path d="M75.0429 77.6621
L74.9477 77.6145
" />
<path d="M74.9477 77.6145
L74.8524 77.5192
" />
<path d="M74.8524 77.5192
L74.8048 77.3764
" />
<path d="M74.8048 77.3764
L74.8048 77.2811
" />
<path d="M74.8048 77.2811
L74.8524 77.1383
" />
<path d="M74.8524 77.1383
L74.9001 77.0907
" />
<path d="M74.8048 76.7573
L74.8048 76.0907
" />
<path d="M74.8048 76.0907
L75.8048 76.5192
" />
</g><text x="50.0000" y="47.0000"
textLength="2.2024" font-size="1.3333" lengthAdjust="spacingAndGlyphs"
text-anchor="middle" opacity="0" stroke-opacity="0">R4</text>
<g class="stroked-text"><desc>R4</desc>
<path d="M49.8333 46.9548
L49.5000 46.4786
" />
<path d="M49.2619 46.9548
L49.2619 45.9548
" />
<path d="M49.2619 45.9548
L49.6429 45.9548
" />
<path d="M49.6429 45.9548
L49.7381 46.0024
" />
<path d="M49.7381 46.0024
L49.7857 46.0501
" />
<path d="M49.7857 46.0501
L49.8333 46.1453
" />
<path d="M49.8333 46.1453
L49.8333 46.2882
" />
<path d="M49.8333 46.2882
L49.7857 46.3834
" />
<path d="M49.7857 46.3834
L49.7381 46.4310
" />
<path d="M49.7381 46.4310
L49.6429 46.4786
" />
<path d="M49.6429 46.4786
L49.2619 46.4786
" />
<path d="M50.6905 46.2882
L50.6905 46.9548
" />
<path d="M50.4524 45.9072
L50.2143 46.6215
" />
<path d="M50.2143 46.6215
L50.8333 46.6215
" />
</g><text x="54.7000" y="63.0000"
textLength="2.2024" font-size="1.3333" lengthAdjust="spacingAndGlyphs"
text-anchor="middle" opacity="0" stroke-opacity="0">D2</text>
<g class="stroked-text"><desc>D2</desc>
<path d="M53.9619 62.9548
L53.9619 61.9548
" />
<path d="M53.9619 61.9548
L54.2000 61.9548
" />
<path d="M54.2000 61.9548
L54.3429 62.0024
" />
<path d="M54.3429 62.0024
L54.4381 62.0977
" />
<path d="M54.4381 62.0977
L54.4857 62.1929
" />
<path d="M54.4857 62.1929
L54.5333 62.3834
" />
<path d="M54.5333 62.3834
L54.5333 62.5262
" />
<path d="M54.5333 62.5262
L54.4857 62.7167
" />
<path d="M54.4857 62.7167
L54.4381 62.8120
" />
<path d="M54.4381 62.8120
L54.3429 62.9072
" />
<path d="M54.3429 62.9072
L54.2000 62.9548
" />
<path d="M54.2000 62.9548
L53.9619 62.9548
" />
<path d="M54.9143 62.0501
L54.9619 62.0024
" />
<path d="M54.9619 62.0024
L55.0571 61.9548
" />
<path d="M55.0571 61.9548
L55.2952 61.9548
" />
<path d="M55.2952 61.9548
L55.3905 62.0024
" />
<path d="M55.3905 62.0024
L55.4381 62.0501
" />
<path d="M55.4381 62.0501
L55.4857 62.1453
" />
<path d="M55.4857 62.1453
L55.4857 62.2405
" />
<path d="M55.4857 62.2405
L55.4381 62.3834
" />
<path d="M55.4381 62.3834
L54.8667 62.9548
" />
<path d="M54.8667 62.9548
L55.4857 62.9548
" />
</g><g transform="rotate(-90.000000 75.5000 56.5000)">
<text x="75.5000" y="57.0000"
textLength="2.2024" font-size="1.3333" lengthAdjust="spacingAndGlyphs"
text-anchor="middle" opacity="0" stroke-opacity="0">D6</text>
</g>
<g class="stroked-text"><desc>D6</desc>
<path d="M75.9548 57.2381
L74.9548 57.2381
" />
<path d="M74.9548 57.2381
L74.9548 57.0000
" />
<path d="M74.9548 57.0000
L75.0024 56.8571
" />
<path d="M75.0024 56.8571
L75.0977 56.7619
" />
<path d="M75.0977 56.7619
L75.1929 56.7143
" />
<path d="M75.1929 56.7143
L75.3834 56.6667
" />
<path d="M75.3834 56.6667
L75.5262 56.6667
" />
<path d="M75.5262 56.6667
L75.7167 56.7143
" />
<path d="M75.7167 56.7143
L75.8120 56.7619
" />
<path d="M75.8120 56.7619
L75.9072 56.8571
" />
<path d="M75.9072 56.8571
L75.9548 57.0000
" />
<path d="M75.9548 57.0000
L75.9548 57.2381
" />
<path d="M74.9548 55.8095
L74.9548 56.0000
" />
<path d="M74.9548 56.0000
L75.0024 56.0952
" />
<path d="M75.0024 56.0952
L75.0501 56.1429
" />
<path d="M75.0501 56.1429
L75.1929 56.2381
" />
<path d="M75.1929 56.2381
L75.3834 56.2857
" />
<path d="M75.3834 56.2857
L75.7643 56.2857
" />
<path d="M75.7643 56.2857
L75.8596 56.2381
" />
<path d="M75.8596 56.2381
L75.9072 56.1905
" />
<path d="M75.9072 56.1905
L75.9548 56.0952
" />
<path d="M75.9548 56.0952
L75.9548 55.9048
" />
<path d="M75.9548 55.9048
L75.9072 55.8095
" />
<path d="M75.9072 55.8095
L75.8596 55.7619
" />
<path d="M75.8596 55.7619
L75.7643 55.7143
" />
<path d="M75.7643 55.7143
L75.5262 55.7143
" />
<path d="M75.5262 55.7143
L75.4310 55.7619
" />
<path d="M75.4310 55.7619
L75.3834 55.8095
" />
<path d="M75.3834 55.8095
L75.3358 55.9048
" />
<path d="M75.3358 55.9048
L75.3358 56.0952
" />
<path d="M75.3358 56.0952
L75.3834 56.1905
" />
<path d="M75.3834 56.1905
L75.4310 56.2381
" />
<path d="M75.4310 56.2381
L75.5262 56.2857
" />
</g></g>
<g style="fill:none; 
stroke:#F2EDA1; stroke-width:0.2540; stroke-opacity:1; 
stroke-linecap:round; stroke-linejoin:round;">
<text x="67.0400" y="73.3470"
textLength="3.0480" font-size="1.6933" lengthAdjust="spacingAndGlyphs"
text-anchor="middle" opacity="0" stroke-opacity="0">U1</text>
<g class="stroked-text"><desc>U1</desc>
<path d="M66.0724 72.0163
L66.0724 73.0444
" />
<path d="M66.0724 73.0444
L66.1329 73.1654
" />
<path d="M66.1329 73.1654
L66.1933 73.2258
" />
<path d="M66.1933 73.2258
L66.3143 73.2863
" />
<path d="M66.3143 73.2863
L66.5562 73.2863
" />
<path d="M66.5562 73.2863
L66.6771 73.2258
" />
<path d="M66.6771 73.2258
L66.7376 73.1654
" />
<path d="M66.7376 73.1654
L66.7981 73.0444
" />
<path d="M66.7981 73.0444
L66.7981 72.0163
" />
<path d="M68.0681 73.2863
L67.3424 73.2863
" />
<path d="M67.7052 73.2863
L67.7052 72.0163
" />
<path d="M67.7052 72.0163
L67.5843 72.1977
" />
<path d="M67.5843 72.1977
L67.4633 72.3187
" />
<path d="M67.4633 72.3187
L67.3424 72.3792
" />
</g></g>
<g style="fill:none; 
stroke:#F2EDA1; stroke-width:0.1500; stroke-opacity:1; 
stroke-linecap:round; stroke-linejoin:round;">
<g transform="rotate(-90.000000 61.1500 51.3125)">
<text x="61.1500" y="51.8125"
textLength="2.2024" font-size="1.3333" lengthAdjust="spacingAndGlyphs"
text-anchor="middle" opacity="0" stroke-opacity="0">C8</text>
</g>
<g class="stroked-text"><desc>C8</desc>
<path d="M61.5096 51.4792
L61.5572 51.5268
" />
<path d="M61.5572 51.5268
L61.6048 51.6696
" />
<path d="M61.6048 51.6696
L61.6048 51.7649
" />
<path d="M61.6048 51.7649
L61.5572 51.9077
" />
<path d="M61.5572 51.9077
L61.4620 52.0030
" />
<path d="M61.4620 52.0030
L61.3667 52.0506
" />
<path d="M61.3667 52.0506
L61.1762 52.0982
" />
<path d="M61.1762 52.0982
L61.0334 52.0982
" />
<path d="M61.0334 52.0982
L60.8429 52.0506
" />
<path d="M60.8429 52.0506
L60.7477 52.0030
" />
<path d="M60.7477 52.0030
L60.6524 51.9077
" />
<path d="M60.6524 51.9077
L60.6048 51.7649
" />
<path d="M60.6048 51.7649
L60.6048 51.6696
" />
<path d="M60.6048 51.6696
L60.6524 51.5268
" />
<path d="M60.6524 51.5268
L60.7001 51.4792
" />
<path d="M61.0334 50.9077
L60.9858 51.0030
" />
<path d="M60.9858 51.0030
L60.9382 51.0506
" />
<path d="M60.9382 51.0506
L60.8429 51.0982
" />
<path d="M60.8429 51.0982
L60.7953 51.0982
" />
<path d="M60.7953 51.0982
L60.7001 51.0506
" />
<path d="M60.7001 51.0506
L60.6524 51.0030
" />
<path d="M60.6524 51.0030
L60.6048 50.9077
" />
<path d="M60.6048 50.9077
L60.6048 50.7173
" />
<path d="M60.6048 50.7173
L60.6524 50.6220
" />
<path d="M60.6524 50.6220
L60.7001 50.5744
" />
<path d="M60.7001 50.5744
L60.7953 50.5268
" />
<path d="M60.7953 50.5268
L60.8429 50.5268
" />
<path d="M60.8429 50.5268
L60.9382 50.5744
" />
<path d="M60.9382 50.5744
L60.9858 50.6220
" />
<path d="M60.9858 50.6220
L61.0334 50.7173
" />
<path d="M61.0334 50.7173
L61.0334 50.9077
" />
<path d="M61.0334 50.9077
L61.0810 51.0030
" />
<path d="M61.0810 51.0030
L61.1286 51.0506
" />
<path d="M61.1286 51.0506
L61.2239 51.0982
" />
<path d="M61.2239 51.0982
L61.4143 51.0982
" />
<path d="M61.4143 51.0982
L61.5096 51.0506
" />
<path d="M61.5096 51.0506
L61.5572 51.0030
" />
<path d="M61.5572 51.0030
L61.6048 50.9077
" />
<path d="M61.6048 50.9077
L61.6048 50.7173
" />
<path d="M61.6048 50.7173
L61.5572 50.6220
" />
<path d="M61.5572 50.6220
L61.5096 50.5744
" />
<path d="M61.5096 50.5744
L61.4143 50.5268
" />
<path d="M61.4143 50.5268
L61.2239 50.5268
" />
<path d="M61.2239 50.5268
L61.1286 50.5744
" />
<path d="M61.1286 50.5744
L61.0810 50.6220
" />
<path d="M61.0810 50.6220
L61.0334 50.7173
" />
</g><text x="50.0000" y="44.0000"
textLength="2.2024" font-size="1.3333" lengthAdjust="spacingAndGlyphs"
text-anchor="middle" opacity="0" stroke-opacity="0">R5</text>
<g class="stroked-text"><desc>R5</desc>
<path d="M49.8333 43.9548
L49.5000 43.4786
" />
<path d="M49.2619 43.9548
L49.2619 42.9548
" />
<path d="M49.2619 42.9548
L49.6429 42.9548
" />
<path d="M49.6429 42.9548
L49.7381 43.0024
" />
<path d="M49.7381 43.0024
L49.7857 43.0501
" />
<path d="M49.7857 43.0501
L49.8333 43.1453
" />
<path d="M49.8333 43.1453
L49.8333 43.2882
" />
<path d="M49.8333 43.2882
L49.7857 43.3834
" />
<path d="M49.7857 43.3834
L49.7381 43.4310
" />
<path d="M49.7381 43.4310
L49.6429 43.4786
" />
<path d="M49.6429 43.4786
L49.2619 43.4786
" />
<path d="M50.7381 42.9548
L50.2619 42.9548
" />
<path d="M50.2619 42.9548
L50.2143 43.4310
" />
<path d="M50.2143 43.4310
L50.2619 43.3834
" />
<path d="M50.2619 43.3834
L50.3571 43.3358
" />
<path d="M50.3571 43.3358
L50.5952 43.3358
" />
<path d="M50.5952 43.3358
L50.6905 43.3834
" />
<path d="M50.6905 43.3834
L50.7381 43.4310
" />
<path d="M50.7381 43.4310
L50.7857 43.5262
" />
<path d="M50.7857 43.5262
L50.7857 43.7643
" />
<path d="M50.7857 43.7643
L50.7381 43.8596
" />
<path d="M50.7381 43.8596
L50.6905 43.9072
" />
<path d="M50.6905 43.9072
L50.5952 43.9548
" />
<path d="M50.5952 43.9548
L50.3571 43.9548
" />
<path d="M50.3571 43.9548
L50.2619 43.9072
" />
<path d="M50.2619 43.9072
L50.2143 43.8596
" />
</g><text x="67.0333" y="63.0000"
textLength="2.2024" font-size="1.3333" lengthAdjust="spacingAndGlyphs"
text-anchor="middle" opacity="0" stroke-opacity="0">D4</text>
<g class="stroked-text"><desc>D4</desc>
<path d="M66.2952 62.9548
L66.2952 61.9548
" />
<path d="M66.2952 61.9548
L66.5333 61.9548
" />
<path d="M66.5333 61.9548
L66.6762 62.0024
" />
<path d="M66.6762 62.0024
L66.7714 62.0977
" />
<path d="M66.7714 62.0977
L66.8190 62.1929
" />
<path d="M66.8190 62.1929
L66.8667 62.3834
" />
<path d="M66.8667 62.3834
L66.8667 62.5262
" />
<path d="M66.8667 62.5262
L66.8190 62.7167
" />
<path d="M66.8190 62.7167
L66.7714 62.8120
" />
<path d="M66.7714 62.8120
L66.6762 62.9072
" />
<path d="M66.6762 62.9072
L66.5333 62.9548
" />
<path d="M66.5333 62.9548
L66.2952 62.9548
" />
<path d="M67.7238 62.2882
L67.7238 62.9548
" />
<path d="M67.4857 61.9072
L67.2476 62.6215
" />
<path d="M67.2476 62.6215
L67.8667 62.6215
" />
</g><text x="57.5000" y="78.5000"
textLength="2.2024" font-size="1.3333" lengthAdjust="spacingAndGlyphs"
text-anchor="middle" opacity="0" stroke-opacity="0">C1</text>
<g class="stroked-text"><desc>C1</desc>
<path d="M57.3333 78.3596
L57.2857 78.4072
" />
<path d="M57.2857 78.4072
L57.1429 78.4548
" />
<path d="M57.1429 78.4548
L57.0476 78.4548
" />
<path d="M57.0476 78.4548
L56.9048 78.4072
" />
<path d="M56.9048 78.4072
L56.8095 78.3120
" />
<path d="M56.8095 78.3120
L56.7619 78.2167
" />
<path d="M56.7619 78.2167
L56.7143 78.0262
" />
<path d="M56.7143 78.0262
L56.7143 77.8834
" />
<path d="M56.7143 77.8834
L56.7619 77.6929
" />
<path d="M56.7619 77.6929
L56.8095 77.5977
" />
<path d="M56.8095 77.5977
L56.9048 77.5024
" />
<path d="M56.9048 77.5024
L57.0476 77.4548
" />
<path d="M57.0476 77.4548
L57.1429 77.4548
" />
<path d="M57.1429 77.4548
L57.2857 77.5024
" />
<path d="M57.2857 77.5024
L57.3333 77.5501
" />
<path d="M58.2857 78.4548
L57.7143 78.4548
" />
<path d="M58.0000 78.4548
L58.0000 77.4548
" />
<path d="M58.0000 77.4548
L57.9048 77.5977
" />
<path d="M57.9048 77.5977
L57.8095 77.6929
" />
<path d="M57.8095 77.6929
L57.7143 77.7405
" />
</g><g transform="rotate(-90.000000 75.3500 71.0000)">
<text x="75.3500" y="71.5000"
textLength="3.1548" font-size="1.3333" lengthAdjust="spacingAndGlyphs"
text-anchor="middle" opacity="0" stroke-opacity="0">C10</text>
</g>
<g class="stroked-text"><desc>C10</desc>
<path d="M75.7096 71.6429
L75.7572 71.6905
" />
<path d="M75.7572 71.6905
L75.8048 71.8333
" />
<path d="M75.8048 71.8333
L75.8048 71.9286
" />
<path d="M75.8048 71.9286
L75.7572 72.0714
" />
<path d="M75.7572 72.0714
L75.6620 72.1667
" />
<path d="M75.6620 72.1667
L75.5667 72.2143
" />
<path d="M75.5667 72.2143
L75.3762 72.2619
" />
<path d="M75.3762 72.2619
L75.2334 72.2619
" />
<path d="M75.2334 72.2619
L75.0429 72.2143
" />
<path d="M75.0429 72.2143
L74.9477 72.1667
" />
<path d="M74.9477 72.1667
L74.8524 72.0714
" />
<path d="M74.8524 72.0714
L74.8048 71.9286
" />
<path d="M74.8048 71.9286
L74.8048 71.8333
" />
<path d="M74.8048 71.8333
L74.8524 71.6905
" />
<path d="M74.8524 71.6905
L74.9001 71.6429
" />
<path d="M75.8048 70.6905
L75.8048 71.2619
" />
<path d="M75.8048 70.9762
L74.8048 70.9762
" />
<path d="M74.8048 70.9762
L74.9477 71.0714
" />
<path d="M74.9477 71.0714
L75.0429 71.1667
" />
<path d="M75.0429 71.1667
L75.0905 71.2619
" />
<path d="M74.8048 70.0714
L74.8048 69.9762
" />
<path d="M74.8048 69.9762
L74.8524 69.8810
" />
<path d="M74.8524 69.8810
L74.9001 69.8333
" />
<path d="M74.9001 69.8333
L74.9953 69.7857
" />
<path d="M74.9953 69.7857
L75.1858 69.7381
" />
<path d="M75.1858 69.7381
L75.4239 69.7381
" />
<path d="M75.4239 69.7381
L75.6143 69.7857
" />
<path d="M75.6143 69.7857
L75.7096 69.8333
" />
<path d="M75.7096 69.8333
L75.7572 69.8810
" />
<path d="M75.7572 69.8810
L75.8048 69.9762
" />
<path d="M75.8048 69.9762
L75.8048 70.0714
" />
<path d="M75.8048 70.0714
L75.7572 70.1667
" />
<path d="M75.7572 70.1667
L75.7096 70.2143
" />
<path d="M75.7096 70.2143
L75.6143 70.2619
" />
<path d="M75.6143 70.2619
L75.4239 70.3095
" />
<path d="M75.4239 70.3095
L75.1858 70.3095
" />
<path d="M75.1858 70.3095
L74.9953 70.2619
" />
<path d="M74.9953 70.2619
L74.9001 70.2143
" />
<path d="M74.9001 70.2143
L74.8524 70.1667
" />
<path d="M74.8524 70.1667
L74.8048 70.0714
" />
</g><g transform="rotate(-90.000000 58.0000 56.5000)">
<text x="58.0000" y="57.0000"
textLength="2.2024" font-size="1.3333" lengthAdjust="spacingAndGlyphs"
text-anchor="middle" opacity="0" stroke-opacity="0">D7</text>
</g>
<g class="stroked-text"><desc>D7</desc>
<path d="M58.4548 57.2381
L57.4548 57.2381
" />
<path d="M57.4548 57.2381
L57.4548 57.0000
" />
<path d="M57.4548 57.0000
L57.5024 56.8571
" />
<path d="M57.5024 56.8571
L57.5977 56.7619
" />
<path d="M57.5977 56.7619
L57.6929 56.7143
" />
<path d="M57.6929 56.7143
L57.8834 56.6667
" />
<path d="M57.8834 56.6667
L58.0262 56.6667
" />
<path d="M58.0262 56.6667
L58.2167 56.7143
" />
<path d="M58.2167 56.7143
L58.3120 56.7619
" />
<path d="M58.3120 56.7619
L58.4072 56.8571
" />
<path d="M58.4072 56.8571
L58.4548 57.0000
" />
<path d="M58.4548 57.0000
L58.4548 57.2381
" />
<path d="M57.4548 56.3333
L57.4548 55.6667
" />
<path d="M57.4548 55.6667
L58.4548 56.0952
" />
</g><text x="50.0000" y="53.0000"
textLength="2.2024" font-size="1.3333" lengthAdjust="spacingAndGlyphs"
text-anchor="middle" opacity="0" stroke-opacity="0">R2</text>
<g class="stroked-text"><desc>R2</desc>
<path d="M49.8333 52.9548
L49.5000 52.4786
" />
<path d="M49.2619 52.9548
L49.2619 51.9548
" />
<path d="M49.2619 51.9548
L49.6429 51.9548
" />
<path d="M49.6429 51.9548
L49.7381 52.0024
" />
<path d="M49.7381 52.0024
L49.7857 52.0501
" />
<path d="M49.7857 52.0501
L49.8333 52.1453
" />
<path d="M49.8333 52.1453
L49.8333 52.2882
" />
<path d="M49.8333 52.2882
L49.7857 52.3834
" />
<path d="M49.7857 52.3834
L49.7381 52.4310
" />
<path d="M49.7381 52.4310
L49.6429 52.4786
" />
<path d="M49.6429 52.4786
L49.2619 52.4786
" />
<path d="M50.2143 52.0501
L50.2619 52.0024
" />
<path d="M50.2619 52.0024
L50.3571 51.9548
" />
<path d="M50.3571 51.9548
L50.5952 51.9548
" />
<path d="M50.5952 51.9548
L50.6905 52.0024
" />
<path d="M50.6905 52.0024
L50.7381 52.0501
" />
<path d="M50.7381 52.0501
L50.7857 52.1453
" />
<path d="M50.7857 52.1453
L50.7857 52.2405
" />
<path d="M50.7857 52.2405
L50.7381 52.3834
" />
<path d="M50.7381 52.3834
L50.1667 52.9548
" />
<path d="M50.1667 52.9548
L50.7857 52.9548
" />
</g><text x="60.8667" y="63.0000"
textLength="2.2024" font-size="1.3333" lengthAdjust="spacingAndGlyphs"
text-anchor="middle" opacity="0" stroke-opacity="0">D3</text>
<g class="stroked-text"><desc>D3</desc>
<path d="M60.1286 62.9548
L60.1286 61.9548
" />
<path d="M60.1286 61.9548
L60.3667 61.9548
" />
<path d="M60.3667 61.9548
L60.5095 62.0024
" />
<path d="M60.5095 62.0024
L60.6048 62.0977
" />
<path d="M60.6048 62.0977
L60.6524 62.1929
" />
<path d="M60.6524 62.1929
L60.7000 62.3834
" />
<path d="M60.7000 62.3834
L60.7000 62.5262
" />
<path d="M60.7000 62.5262
L60.6524 62.7167
" />
<path d="M60.6524 62.7167
L60.6048 62.8120
" />
<path d="M60.6048 62.8120
L60.5095 62.9072
" />
<path d="M60.5095 62.9072
L60.3667 62.9548
" />
<path d="M60.3667 62.9548
L60.1286 62.9548
" />
<path d="M61.0333 61.9548
L61.6524 61.9548
" />
<path d="M61.6524 61.9548
L61.3190 62.3358
" />
<path d="M61.3190 62.3358
L61.4619 62.3358
" />
<path d="M61.4619 62.3358
L61.5571 62.3834
" />
<path d="M61.5571 62.3834
L61.6048 62.4310
" />
<path d="M61.6048 62.4310
L61.6524 62.5262
" />
<path d="M61.6524 62.5262
L61.6524 62.7643
" />
<path d="M61.6524 62.7643
L61.6048 62.8596
" />
<path d="M61.6048 62.8596
L61.5571 62.9072
" />
<path d="M61.5571 62.9072
L61.4619 62.9548
" />
<path d="M61.4619 62.9548
L61.1762 62.9548
" />
<path d="M61.1762 62.9548
L61.0810 62.9072
" />
<path d="M61.0810 62.9072
L61.0333 62.8596
" />
</g><text x="53.5000" y="82.5000"
textLength="4.2500" font-size="1.3333" lengthAdjust="spacingAndGlyphs"
text-anchor="middle" opacity="0" stroke-opacity="0">+12V</text>
<g class="stroked-text"><desc>+12V</desc>
<path d="M51.7381 82.0739
L52.5000 82.0739
" />
<path d="M52.1190 82.4548
L52.1190 81.6929
" />
<path d="M53.5000 82.4548
L52.9286 82.4548
" />
<path d="M53.2143 82.4548
L53.2143 81.4548
" />
<path d="M53.2143 81.4548
L53.1190 81.5977
" />
<path d="M53.1190 81.5977
L53.0238 81.6929
" />
<path d="M53.0238 81.6929
L52.9286 81.7405
" />
<path d="M53.8810 81.5501
L53.9286 81.5024
" />
<path d="M53.9286 81.5024
L54.0238 81.4548
" />
<path d="M54.0238 81.4548
L54.2619 81.4548
" />
<path d="M54.2619 81.4548
L54.3571 81.5024
" />
<path d="M54.3571 81.5024
L54.4048 81.5501
" />
<path d="M54.4048 81.5501
L54.4524 81.6453
" />
<path d="M54.4524 81.6453
L54.4524 81.7405
" />
<path d="M54.4524 81.7405
L54.4048 81.8834
" />
<path d="M54.4048 81.8834
L53.8333 82.4548
" />
<path d="M53.8333 82.4548
L54.4524 82.4548
" />
<path d="M54.7381 81.4548
L55.0714 82.4548
" />
<path d="M55.0714 82.4548
L55.4048 81.4548
" />
</g><text x="73.0000" y="67.0000"
textLength="2.2024" font-size="1.3333" lengthAdjust="spacingAndGlyphs"
text-anchor="middle" opacity="0" stroke-opacity="0">C5</text>
<g class="stroked-text"><desc>C5</desc>
<path d="M72.8333 66.8596
L72.7857 66.9072
" />
<path d="M72.7857 66.9072
L72.6429 66.9548
" />
<path d="M72.6429 66.9548
L72.5476 66.9548
" />
<path d="M72.5476 66.9548
L72.4048 66.9072
" />
<path d="M72.4048 66.9072
L72.3095 66.8120
" />
<path d="M72.3095 66.8120
L72.2619 66.7167
" />
<path d="M72.2619 66.7167
L72.2143 66.5262
" />
<path d="M72.2143 66.5262
L72.2143 66.3834
" />
<path d="M72.2143 66.3834
L72.2619 66.1929
" />
<path d="M72.2619 66.1929
L72.3095 66.0977
" />
<path d="M72.3095 66.0977
L72.4048 66.0024
" />
<path d="M72.4048 66.0024
L72.5476 65.9548
" />
<path d="M72.5476 65.9548
L72.6429 65.9548
" />
<path d="M72.6429 65.9548
L72.7857 66.0024
" />
<path d="M72.7857 66.0024
L72.8333 66.0501
" />
<path d="M73.7381 65.9548
L73.2619 65.9548
" />
<path d="M73.2619 65.9548
L73.2143 66.4310
" />
<path d="M73.2143 66.4310
L73.2619 66.3834
" />
<path d="M73.2619 66.3834
L73.3571 66.3358
" />
<path d="M73.3571 66.3358
L73.5952 66.3358
" />
<path d="M73.5952 66.3358
L73.6905 66.3834
" />
<path d="M73.6905 66.3834
L73.7381 66.4310
" />
<path d="M73.7381 66.4310
L73.7857 66.5262
" />
<path d="M73.7857 66.5262
L73.7857 66.7643
" />
<path d="M73.7857 66.7643
L73.7381 66.8596
" />
<path d="M73.7381 66.8596
L73.6905 66.9072
" />
<path d="M73.6905 66.9072
L73.5952 66.9548
" />
<path d="M73.5952 66.9548
L73.3571 66.9548
" />
<path d="M73.3571 66.9548
L73.2619 66.9072
" />
<path d="M73.2619 66.9072
L73.2143 66.8596
" />
</g><g transform="rotate(-90.000000 74.4125 50.0000)">
<text x="74.4125" y="50.5000"
textLength="2.2024" font-size="1.3333" lengthAdjust="spacingAndGlyphs"
text-anchor="middle" opacity="0" stroke-opacity="0">R6</text>
</g>
<g class="stroked-text"><desc>R6</desc>
<path d="M74.8673 50.1667
L74.3911 50.5000
" />
<path d="M74.8673 50.7381
L73.8673 50.7381
" />
<path d="M73.8673 50.7381
L73.8673 50.3571
" />
<path d="M73.8673 50.3571
L73.9149 50.2619
" />
<path d="M73.9149 50.2619
L73.9626 50.2143
" />
<path d="M73.9626 50.2143
L74.0578 50.1667
" />
<path d="M74.0578 50.1667
L74.2007 50.1667
" />
<path d="M74.2007 50.1667
L74.2959 50.2143
" />
<path d="M74.2959 50.2143
L74.3435 50.2619
" />
<path d="M74.3435 50.2619
L74.3911 50.3571
" />
<path d="M74.3911 50.3571
L74.3911 50.7381
" />
<path d="M73.8673 49.3095
L73.8673 49.5000
" />
<path d="M73.8673 49.5000
L73.9149 49.5952
" />
<path d="M73.9149 49.5952
L73.9626 49.6429
" />
<path d="M73.9626 49.6429
L74.1054 49.7381
" />
<path d="M74.1054 49.7381
L74.2959 49.7857
" />
<path d="M74.2959 49.7857
L74.6768 49.7857
" />
<path d="M74.6768 49.7857
L74.7721 49.7381
" />
<path d="M74.7721 49.7381
L74.8197 49.6905
" />
<path d="M74.8197 49.6905
L74.8673 49.5952
" />
<path d="M74.8673 49.5952
L74.8673 49.4048
" />
<path d="M74.8673 49.4048
L74.8197 49.3095
" />
<path d="M74.8197 49.3095
L74.7721 49.2619
" />
<path d="M74.7721 49.2619
L74.6768 49.2143
" />
<path d="M74.6768 49.2143
L74.4387 49.2143
" />
<path d="M74.4387 49.2143
L74.3435 49.2619
" />
<path d="M74.3435 49.2619
L74.2959 49.3095
" />
<path d="M74.2959 49.3095
L74.2483 49.4048
" />
<path d="M74.2483 49.4048
L74.2483 49.5952
" />
<path d="M74.2483 49.5952
L74.2959 49.6905
" />
<path d="M74.2959 49.6905
L74.3435 49.7381
" />
<path d="M74.3435 49.7381
L74.4387 49.7857
" />
</g><text x="70.0000" y="36.0000"
textLength="3.1071" font-size="1.3333" lengthAdjust="spacingAndGlyphs"
text-anchor="middle" opacity="0" stroke-opacity="0">OUT</text>
<g class="stroked-text"><desc>OUT</desc>
<path d="M69.0000 34.9548
L69.1905 34.9548
" />
<path d="M69.1905 34.9548
L69.2857 35.0024
" />
<path d="M69.2857 35.0024
L69.3810 35.0977
" />
<path d="M69.3810 35.0977
L69.4286 35.2882
" />
<path d="M69.4286 35.2882
L69.4286 35.6215
" />
<path d="M69.4286 35.6215
L69.3810 35.8120
" />
<path d="M69.3810 35.8120
L69.2857 35.9072
" />
<path d="M69.2857 35.9072
L69.1905 35.9548
" />
<path d="M69.1905 35.9548
L69.0000 35.9548
" />
<path d="M69.0000 35.9548
L68.9048 35.9072
" />
<path d="M68.9048 35.9072
L68.8095 35.8120
" />
<path d="M68.8095 35.8120
L68.7619 35.6215
" />
<path d="M68.7619 35.6215
L68.7619 35.2882
" />
<path d="M68.7619 35.2882
L68.8095 35.0977
" />
<path d="M68.8095 35.0977
L68.9048 35.0024
" />
<path d="M68.9048 35.0024
L69.0000 34.9548
" />
<path d="M69.8571 34.9548
L69.8571 35.7643
" />
<path d="M69.8571 35.7643
L69.9048 35.8596
" />
<path d="M69.9048 35.8596
L69.9524 35.9072
" />
<path d="M69.9524 35.9072
L70.0476 35.9548
" />
<path d="M70.0476 35.9548
L70.2381 35.9548
" />
<path d="M70.2381 35.9548
L70.3333 35.9072
" />
<path d="M70.3333 35.9072
L70.3810 35.8596
" />
<path d="M70.3810 35.8596
L70.4286 35.7643
" />
<path d="M70.4286 35.7643
L70.4286 34.9548
" />
<path d="M70.7619 34.9548
L71.3333 34.9548
" />
<path d="M71.0476 35.9548
L71.0476 34.9548
" />
</g><g transform="rotate(-90.000000 57.1500 51.2500)">
<text x="57.1500" y="51.7500"
textLength="2.2024" font-size="1.3333" lengthAdjust="spacingAndGlyphs"
text-anchor="middle" opacity="0" stroke-opacity="0">C9</text>
</g>
<g class="stroked-text"><desc>C9</desc>
<path d="M57.5096 51.4167
L57.5572 51.4643
" />
<path d="M57.5572 51.4643
L57.6048 51.6071
" />
<path d="M57.6048 51.6071
L57.6048 51.7024
" />
<path d="M57.6048 51.7024
L57.5572 51.8452
" />
<path d="M57.5572 51.8452
L57.4620 51.9405
" />
<path d="M57.4620 51.9405
L57.3667 51.9881
" />
<path d="M57.3667 51.9881
L57.1762 52.0357
" />
<path d="M57.1762 52.0357
L57.0334 52.0357
" />
<path d="M57.0334 52.0357
L56.8429 51.9881
" />
<path d="M56.8429 51.9881
L56.7477 51.9405
" />
<path d="M56.7477 51.9405
L56.6524 51.8452
" />
<path d="M56.6524 51.8452
L56.6048 51.7024
" />
<path d="M56.6048 51.7024
L56.6048 51.6071
" />
<path d="M56.6048 51.6071
L56.6524 51.4643
" />
<path d="M56.6524 51.4643
L56.7001 51.4167
" />
<path d="M57.6048 50.9405
L57.6048 50.7500
" />
<path d="M57.6048 50.7500
L57.5572 50.6548
" />
<path d="M57.5572 50.6548
L57.5096 50.6071
" />
<path d="M57.5096 50.6071
L57.3667 50.5119
" />
<path d="M57.3667 50.5119
L57.1762 50.4643
" />
<path d="M57.1762 50.4643
L56.7953 50.4643
" />
<path d="M56.7953 50.4643
L56.7001 50.5119
" />
<path d="M56.7001 50.5119
L56.6524 50.5595
" />
<path d="M56.6524 50.5595
L56.6048 50.6548
" />
<path d="M56.6048 50.6548
L56.6048 50.8452
" />
<path d="M56.6048 50.8452
L56.6524 50.9405
" />
<path d="M56.6524 50.9405
L56.7001 50.9881
" />
<path d="M56.7001 50.9881
L56.7953 51.0357
" />
<path d="M56.7953 51.0357
L57.0334 51.0357
" />
<path d="M57.0334 51.0357
L57.1286 50.9881
" />
<path d="M57.1286 50.9881
L57.1762 50.9405
" />
<path d="M57.1762 50.9405
L57.2239 50.8452
" />
<path d="M57.2239 50.8452
L57.2239 50.6548
" />
<path d="M57.2239 50.6548
L57.1762 50.5595
" />
<path d="M57.1762 50.5595
L57.1286 50.5119
" />
<path d="M57.1286 50.5119
L57.0334 50.4643
" />
</g><text x="66.5000" y="78.5000"
textLength="2.2024" font-size="1.3333" lengthAdjust="spacingAndGlyphs"
text-anchor="middle" opacity="0" stroke-opacity="0">R1</text>
<g class="stroked-text"><desc>R1</desc>
<path d="M66.3333 78.4548
L66.0000 77.9786
" />
<path d="M65.7619 78.4548
L65.7619 77.4548
" />
<path d="M65.7619 77.4548
L66.1429 77.4548
" />
<path d="M66.1429 77.4548
L66.2381 77.5024
" />
<path d="M66.2381 77.5024
L66.2857 77.5501
" />
<path d="M66.2857 77.5501
L66.3333 77.6453
" />
<path d="M66.3333 77.6453
L66.3333 77.7882
" />
<path d="M66.3333 77.7882
L66.2857 77.8834
" />
<path d="M66.2857 77.8834
L66.2381 77.9310
" />
<path d="M66.2381 77.9310
L66.1429 77.9786
" />
<path d="M66.1429 77.9786
L65.7619 77.9786
" />
<path d="M67.2857 78.4548
L66.7143 78.4548
" />
<path d="M67.0000 78.4548
L67.0000 77.4548
" />
<path d="M67.0000 77.4548
L66.9048 77.5977
" />
<path d="M66.9048 77.5977
L66.8095 77.6929
" />
<path d="M66.8095 77.6929
L66.7143 77.7405
" />
</g><g transform="rotate(-90.000000 74.5000 52.5000)">
<text x="74.5000" y="53.0000"
textLength="2.2024" font-size="1.3333" lengthAdjust="spacingAndGlyphs"
text-anchor="middle" opacity="0" stroke-opacity="0">C6</text>
</g>
<g class="stroked-text"><desc>C6</desc>
<path d="M74.8596 52.6667
L74.9072 52.7143
" />
<path d="M74.9072 52.7143
L74.9548 52.8571
" />
<path d="M74.9548 52.8571
L74.9548 52.9524
" />
<path d="M74.9548 52.9524
L74.9072 53.0952
" />
<path d="M74.9072 53.0952
L74.8120 53.1905
" />
<path d="M74.8120 53.1905
L74.7167 53.2381
" />
<path d="M74.7167 53.2381
L74.5262 53.2857
" />
<path d="M74.5262 53.2857
L74.3834 53.2857
" />
<path d="M74.3834 53.2857
L74.1929 53.2381
" />
<path d="M74.1929 53.2381
L74.0977 53.1905
" />
<path d="M74.0977 53.1905
L74.0024 53.0952
" />
<path d="M74.0024 53.0952
L73.9548 52.9524
" />
<path d="M73.9548 52.9524
L73.9548 52.8571
" />
<path d="M73.9548 52.8571
L74.0024 52.7143
" />
<path d="M74.0024 52.7143
L74.0501 52.6667
" />
<path d="M73.9548 51.8095
L73.9548 52.0000
" />
<path d="M73.9548 52.0000
L74.0024 52.0952
" />
<path d="M74.0024 52.0952
L74.0501 52.1429
" />
<path d="M74.0501 52.1429
L74.1929 52.2381
" />
<path d="M74.1929 52.2381
L74.3834 52.2857
" />
<path d="M74.3834 52.2857
L74.7643 52.2857
" />
<path d="M74.7643 52.2857
L74.8596 52.2381
" />
<path d="M74.8596 52.2381
L74.9072 52.1905
" />
<path d="M74.9072 52.1905
L74.9548 52.0952
" />
<path d="M74.9548 52.0952
L74.9548 51.9048
" />
<path d="M74.9548 51.9048
L74.9072 51.8095
" />
<path d="M74.9072 51.8095
L74.8596 51.7619
" />
<path d="M74.8596 51.7619
L74.7643 51.7143
" />
<path d="M74.7643 51.7143
L74.5262 51.7143
" />
<path d="M74.5262 51.7143
L74.4310 51.7619
" />
<path d="M74.4310 51.7619
L74.3834 51.8095
" />
<path d="M74.3834 51.8095
L74.3358 51.9048
" />
<path d="M74.3358 51.9048
L74.3358 52.0952
" />
<path d="M74.3358 52.0952
L74.3834 52.1905
" />
<path d="M74.3834 52.1905
L74.4310 52.2381
" />
<path d="M74.4310 52.2381
L74.5262 52.2857
" />
</g><g transform="rotate(-90.000000 49.8000 76.3000)">
<text x="49.8000" y="76.8000"
textLength="3.1548" font-size="1.3333" lengthAdjust="spacingAndGlyphs"
text-anchor="middle" opacity="0" stroke-opacity="0">C11</text>
</g>
<g class="stroked-text"><desc>C11</desc>
<path d="M50.1596 76.9429
L50.2072 76.9905
" />
<path d="M50.2072 76.9905
L50.2548 77.1333
" />
<path d="M50.2548 77.1333
L50.2548 77.2286
" />
<path d="M50.2548 77.2286
L50.2072 77.3714
" />
<path d="M50.2072 77.3714
L50.1120 77.4667
" />
<path d="M50.1120 77.4667
L50.0167 77.5143
" />
<path d="M50.0167 77.5143
L49.8262 77.5619
" />
<path d="M49.8262 77.5619
L49.6834 77.5619
" />
<path d="M49.6834 77.5619
L49.4929 77.5143
" />
<path d="M49.4929 77.5143
L49.3977 77.4667
" />
<path d="M49.3977 77.4667
L49.3024 77.3714
" />
<path d="M49.3024 77.3714
L49.2548 77.2286
" />
<path d="M49.2548 77.2286
L49.2548 77.1333
" />
<path d="M49.2548 77.1333
L49.3024 76.9905
" />
<path d="M49.3024 76.9905
L49.3501 76.9429
" />
<path d="M50.2548 75.9905
L50.2548 76.5619
" />
<path d="M50.2548 76.2762
L49.2548 76.2762
" />
<path d="M49.2548 76.2762
L49.3977 76.3714
" />
<path d="M49.3977 76.3714
L49.4929 76.4667
" />
<path d="M49.4929 76.4667
L49.5405 76.5619
" />
<path d="M50.2548 75.0381
L50.2548 75.6095
" />
<path d="M50.2548 75.3238
L49.2548 75.3238
" />
<path d="M49.2548 75.3238
L49.3977 75.4190
" />
<path d="M49.3977 75.4190
L49.4929 75.5143
" />
<path d="M49.4929 75.5143
L49.5405 75.6095
" />
</g><text x="57.5000" y="74.5000"
textLength="2.2024" font-size="1.3333" lengthAdjust="spacingAndGlyphs"
text-anchor="middle" opacity="0" stroke-opacity="0">D1</text>
<g class="stroked-text"><desc>D1</desc>
<path d="M56.7619 74.4548
L56.7619 73.4548
" />
<path d="M56.7619 73.4548
L57.0000 73.4548
" />
<path d="M57.0000 73.4548
L57.1429 73.5024
" />
<path d="M57.1429 73.5024
L57.2381 73.5977
" />
<path d="M57.2381 73.5977
L57.2857 73.6929
" />
<path d="M57.2857 73.6929
L57.3333 73.8834
" />
<path d="M57.3333 73.8834
L57.3333 74.0262
" />
<path d="M57.3333 74.0262
L57.2857 74.2167
" />
<path d="M57.2857 74.2167
L57.2381 74.3120
" />
<path d="M57.2381 74.3120
L57.1429 74.4072
" />
<path d="M57.1429 74.4072
L57.0000 74.4548
" />
<path d="M57.0000 74.4548
L56.7619 74.4548
" />
<path d="M58.2857 74.4548
L57.7143 74.4548
" />
<path d="M58.0000 74.4548
L58.0000 73.4548
" />
<path d="M58.0000 73.4548
L57.9048 73.5977
" />
<path d="M57.9048 73.5977
L57.8095 73.6929
" />
<path d="M57.8095 73.6929
L57.7143 73.7405
" />
</g><text x="54.5500" y="67.0000"
textLength="2.2024" font-size="1.3333" lengthAdjust="spacingAndGlyphs"
text-anchor="middle" opacity="0" stroke-opacity="0">C2</text>
<g class="stroked-text"><desc>C2</desc>
<path d="M54.3833 66.8596
L54.3357 66.9072
" />
<path d="M54.3357 66.9072
L54.1929 66.9548
" />
<path d="M54.1929 66.9548
L54.0976 66.9548
" />
<path d="M54.0976 66.9548
L53.9548 66.9072
" />
<path d="M53.9548 66.9072
L53.8595 66.8120
" />
<path d="M53.8595 66.8120
L53.8119 66.7167
" />
<path d="M53.8119 66.7167
L53.7643 66.5262
" />
<path d="M53.7643 66.5262
L53.7643 66.3834
" />
<path d="M53.7643 66.3834
L53.8119 66.1929
" />
<path d="M53.8119 66.1929
L53.8595 66.0977
" />
<path d="M53.8595 66.0977
L53.9548 66.0024
" />
<path d="M53.9548 66.0024
L54.0976 65.9548
" />
<path d="M54.0976 65.9548
L54.1929 65.9548
" />
<path d="M54.1929 65.9548
L54.3357 66.0024
" />
<path d="M54.3357 66.0024
L54.3833 66.0501
" />
<path d="M54.7643 66.0501
L54.8119 66.0024
" />
<path d="M54.8119 66.0024
L54.9071 65.9548
" />
<path d="M54.9071 65.9548
L55.1452 65.9548
" />
<path d="M55.1452 65.9548
L55.2405 66.0024
" />
<path d="M55.2405 66.0024
L55.2881 66.0501
" />
<path d="M55.2881 66.0501
L55.3357 66.1453
" />
<path d="M55.3357 66.1453
L55.3357 66.2405
" />
<path d="M55.3357 66.2405
L55.2881 66.3834
" />
<path d="M55.2881 66.3834
L54.7167 66.9548
" />
<path d="M54.7167 66.9548
L55.3357 66.9548
" />
</g><text x="66.8833" y="67.0000"
textLength="2.2024" font-size="1.3333" lengthAdjust="spacingAndGlyphs"
text-anchor="middle" opacity="0" stroke-opacity="0">C4</text>
<g class="stroked-text"><desc>C4</desc>
<path d="M66.7167 66.8596
L66.6690 66.9072
" />
<path d="M66.6690 66.9072
L66.5262 66.9548
" />
<path d="M66.5262 66.9548
L66.4310 66.9548
" />
<path d="M66.4310 66.9548
L66.2881 66.9072
" />
<path d="M66.2881 66.9072
L66.1929 66.8120
" />
<path d="M66.1929 66.8120
L66.1452 66.7167
" />
<path d="M66.1452 66.7167
L66.0976 66.5262
" />
<path d="M66.0976 66.5262
L66.0976 66.3834
" />
<path d="M66.0976 66.3834
L66.1452 66.1929
" />
<path d="M66.1452 66.1929
L66.1929 66.0977
" />
<path d="M66.1929 66.0977
L66.2881 66.0024
" />
<path d="M66.2881 66.0024
L66.4310 65.9548
" />
<path d="M66.4310 65.9548
L66.5262 65.9548
" />
<path d="M66.5262 65.9548
L66.6690 66.0024
" />
<path d="M66.6690 66.0024
L66.7167 66.0501
" />
<path d="M67.5738 66.2882
L67.5738 66.9548
" />
<path d="M67.3357 65.9072
L67.0976 66.6215
" />
<path d="M67.0976 66.6215
L67.7167 66.6215
" />
</g></g>
<g style="fill:none; 
stroke:#F2EDA1; stroke-width:0.1200; stroke-opacity:1; 
stroke-linecap:round; stroke-linejoin:round;">
<path d="M60.9779 63.7650
L60.4554 63.7650
" />
<path d="M60.9779 65.2350
L60.4554 65.2350
" />
<path d="M75.5600 59.5000
L71.5500 59.5000
" />
<path d="M75.5600 61.5000
L71.5500 61.5000
" />
<path d="M75.5600 61.5000
L75.5600 59.5000
" />
<path d="M54.2271 48.5900
L52.7729 48.5900
" />
<path d="M54.2271 50.4100
L52.7729 50.4100
" />
<path d="M72.5900 76.2127
L72.5900 77.6353
" />
<path d="M74.4100 76.2127
L74.4100 77.6353
" />
<path d="M52.7729 45.5900
L54.2271 45.5900
" />
<path d="M52.7729 47.4100
L54.2271 47.4100
" />
<path d="M57.0600 59.5000
L53.0500 59.5000
" />
<path d="M57.0600 61.5000
L53.0500 61.5000
" />
<path d="M57.0600 61.5000
L57.0600 59.5000
" />
<path d="M69.7900 55.5000
L69.7900 57.5000
" />
<path d="M69.7900 55.5000
L73.8000 55.5000
" />
<path d="M69.7900 57.5000
L73.8000 57.5000
" />
</g>
<g style="fill:none; 
stroke:#F2EDA1; stroke-width:0.2000; stroke-opacity:1; 
stroke-linecap:round; stroke-linejoin:round;">
<path d="M62.5550 76.1870
L62.5550 74.6620
" />
<path d="M62.7150 71.1120
L71.3650 71.1120
" />
<path d="M62.7150 74.3120
L62.7150 71.1120
" />
<path d="M71.3650 71.1120
L71.3650 74.3120
" />
<path d="M71.3650 74.3120
L62.7150 74.3120
" />
</g>
<g style="fill:none; 
stroke:#F2EDA1; stroke-width:0.1200; stroke-opacity:1; 
stroke-linecap:round; stroke-linejoin:round;">
<path d="M62.0900 52.0238
L62.0900 50.6012
" />
<path d="M63.9100 52.0238
L63.9100 50.6012
" />
<path d="M54.2271 42.5900
L52.7729 42.5900
" />
<path d="M54.2271 44.4100
L52.7729 44.4100
" />
<path d="M69.3933 59.5000
L65.3833 59.5000
" />
<path d="M69.3933 61.5000
L65.3833 61.5000
" />
<path d="M69.3933 61.5000
L69.3933 59.5000
" />
<path d="M57.2387 75.2650
L57.7613 75.2650
" />
<path d="M57.2387 76.7350
L57.7613 76.7350
" />
<path d="M72.5900 70.2887
L72.5900 71.7113
" />
<path d="M74.4100 70.2887
L74.4100 71.7113
" />
<path d="M59.1400 55.5000
L59.1400 57.5000
" />
<path d="M59.1400 55.5000
L63.1500 55.5000
" />
<path d="M59.1400 57.5000
L63.1500 57.5000
" />
<path d="M52.8104 51.5900
L54.2646 51.5900
" />
<path d="M52.8104 53.4100
L54.2646 53.4100
" />
<path d="M63.2267 59.5000
L59.2167 59.5000
" />
<path d="M63.2267 61.5000
L59.2167 61.5000
" />
<path d="M63.2267 61.5000
L63.2267 59.5000
" />
<path d="M73.3113 63.7650
L72.7887 63.7650
" />
<path d="M73.3113 65.2350
L72.7887 65.2350
" />
<path d="M71.7729 49.2650
L72.2271 49.2650
" />
<path d="M71.7729 50.7350
L72.2271 50.7350
" />
<path d="M58.0900 51.9613
L58.0900 50.5387
" />
<path d="M59.9100 51.9613
L59.9100 50.5387
" />
<path d="M69.2271 77.1890
L68.7729 77.1890
" />
<path d="M69.2271 78.6590
L68.7729 78.6590
" />
<path d="M71.7387 51.7650
L72.2613 51.7650
" />
<path d="M71.7387 53.2350
L72.2613 53.2350
" />
<path d="M50.7400 74.2400
L51.9400 74.2400
" />
<path d="M50.7400 77.6956
L50.7400 74.2400
" />
<path d="M51.1900 79.2500
L51.6900 79.2500
" />
<path d="M51.4400 79.5000
L51.4400 79.0000
" />
<path d="M51.8044 78.7600
L50.7400 77.6956
" />
<path d="M51.8044 78.7600
L51.9400 78.7600
" />
<path d="M54.1956 78.7600
L54.0600 78.7600
" />
<path d="M54.1956 78.7600
L55.2600 77.6956
" />
<path d="M55.2600 74.2400
L54.0600 74.2400
" />
<path d="M55.2600 77.6956
L55.2600 74.2400
" />
<path d="M55.1400 71.0000
L55.1400 73.0000
" />
<path d="M55.1400 71.0000
L59.1500 71.0000
" />
<path d="M55.1400 73.0000
L59.1500 73.0000
" />
<path d="M54.8113 63.7650
L54.2887 63.7650
" />
<path d="M54.8113 65.2350
L54.2887 65.2350
" />
<path style="fill:#F2EDA1; fill-opacity:1.0000; stroke:none;fill-rule:evenodd;"
d="M 58.2266,43.9029
59.4485,38.3382
59.8610,38.3382
58.4212,44.6422
58.0243,44.6422
56.4988,38.3382
56.9191,38.3382
Z" /> 
<path style="fill:#F2EDA1; fill-opacity:1.0000; stroke:none;fill-rule:evenodd;"
d="M 73.0460,41.0310
74.2524,38.3382
74.6726,38.3382
73.2328,41.4357
74.7037,44.6422
74.2913,44.6422
72.9915,41.8093
71.8319,44.6422
71.4116,44.6422
72.7970,41.3735
71.4194,38.3382
71.8086,38.3382
Z" /> 
<path style="fill:#F2EDA1; fill-opacity:1.0000; stroke:none;fill-rule:evenodd;"
d="M 66.2453,38.3390
66.3123,38.3415
66.3772,38.3456
66.4400,38.3513
66.5007,38.3587
66.5594,38.3677
66.6160,38.3784
66.6705,38.3907
66.7230,38.4047
66.7734,38.4203
66.8218,38.4375
66.8680,38.4564
66.9122,38.4769
66.9544,38.4991
66.9944,38.5229
67.0324,38.5483
67.0696,38.5742
67.1053,38.6013
67.1394,38.6297
67.1720,38.6592
67.2031,38.6900
67.2327,38.7220
67.2608,38.7552
67.2873,38.7896
67.3123,38.8252
67.3358,38.8621
67.3578,38.9001
67.3783,38.9394
67.3972,38.9799
67.4146,39.0216
67.4305,39.0645
67.4449,39.1087
67.4591,39.1528
67.4723,39.1976
67.4846,39.2430
67.4960,39.2891
67.5065,39.3359
67.5161,39.3834
67.5247,39.4315
67.5325,39.4803
67.5452,39.5799
67.5544,39.6822
67.5598,39.7871
67.5617,39.8947
67.5604,39.9818
67.5568,40.0679
67.5507,40.1530
67.5422,40.2372
67.5313,40.3204
67.5179,40.4026
67.5021,40.4838
67.4838,40.5641
67.4746,40.6036
67.4643,40.6424
67.4529,40.6804
67.4405,40.7178
67.4271,40.7544
67.4127,40.7902
67.3972,40.8254
67.3807,40.8598
67.3632,40.8935
67.3446,40.9264
67.3250,40.9587
67.3043,40.9902
67.2827,41.0209
67.2600,41.0510
67.2362,41.0803
67.2114,41.1088
67.1864,41.1355
67.1599,41.1609
67.1319,41.1851
67.1025,41.2081
67.0716,41.2298
67.0392,41.2504
67.0054,41.2697
66.9702,41.2879
66.9335,41.3048
66.8953,41.3204
66.8556,41.3349
66.8145,41.3482
66.7720,41.3602
66.7279,41.3710
66.6825,41.3806
66.6355,41.3890
67.6473,44.6422
67.2270,44.6422
66.2464,41.4669
65.0712,41.4669
65.0712,44.6422
64.6509,44.6422
64.6509,38.6729
65.0712,38.6729
65.0712,41.1400
66.1608,41.1400
66.2106,41.1394
66.2589,41.1377
66.3057,41.1348
66.3510,41.1307
66.3947,41.1255
66.4369,41.1192
66.4776,41.1117
66.5168,41.1030
66.5545,41.0932
66.5906,41.0822
66.6253,41.0701
66.6584,41.0568
66.6900,41.0424
66.7200,41.0268
66.7486,41.0100
66.7756,40.9921
66.8014,40.9722
66.8261,40.9512
66.8498,40.9294
66.8724,40.9065
66.8940,40.8827
66.9146,40.8579
66.9341,40.8321
66.9527,40.8053
66.9701,40.7776
66.9866,40.7489
67.0020,40.7192
67.0164,40.6886
67.0297,40.6570
67.0420,40.6244
67.0533,40.5908
67.0636,40.5563
67.0739,40.5209
67.0836,40.4846
67.0927,40.4477
67.1010,40.4099
67.1157,40.3319
67.1278,40.2508
67.1371,40.1665
67.1438,40.0791
67.1478,39.9885
67.1492,39.8947
67.1484,39.8210
67.1460,39.7494
67.1421,39.6801
67.1365,39.6131
67.1294,39.5483
67.1207,39.4858
67.1104,39.4255
67.0986,39.3675
67.0852,39.3117
67.0701,39.2581
67.0535,39.2069
67.0354,39.1578
67.0156,39.1110
66.9943,39.0665
66.9713,39.0242
66.9468,38.9842
66.9343,38.9650
66.9209,38.9465
66.9068,38.9285
66.8919,38.9112
66.8761,38.8945
66.8596,38.8784
66.8423,38.8629
66.8242,38.8480
66.8054,38.8337
66.7857,38.8200
66.7652,38.8069
66.7440,38.7945
66.7219,38.7826
66.6991,38.7714
66.6755,38.7607
66.6511,38.7507
66.6259,38.7413
66.5999,38.7324
66.5731,38.7242
66.5455,38.7166
66.4880,38.7033
66.4273,38.6923
66.3635,38.6838
66.2965,38.6777
66.2263,38.6741
66.1530,38.6729
65.0712,38.6729
64.6509,38.6729
64.6509,38.3382
66.1763,38.3382
Z" /> 
<path style="fill:#F2EDA1; fill-opacity:1.0000; stroke:none;fill-rule:evenodd;"
d="M 62.0384,38.3389
62.0971,38.3412
62.1541,38.3449
62.2094,38.3501
62.2631,38.3568
62.3150,38.3650
62.3652,38.3747
62.4138,38.3859
62.4607,38.3986
62.5058,38.4128
62.5493,38.4284
62.5911,38.4456
62.6312,38.4642
62.6697,38.4843
62.7064,38.5060
62.7414,38.5291
62.7758,38.5535
62.8088,38.5791
62.8406,38.6058
62.8711,38.6336
62.9002,38.6626
62.9281,38.6928
62.9547,38.7241
62.9800,38.7565
63.0040,38.7901
63.0267,38.8248
63.0482,38.8606
63.0683,38.8976
63.0871,38.9358
63.1047,38.9751
63.1209,39.0155
63.1359,39.0571
63.1627,39.1430
63.1860,39.2320
63.2057,39.3243
63.2218,39.4197
63.2343,39.5184
63.2432,39.6202
63.2486,39.7251
63.2504,39.8333
63.2504,42.0918
63.2487,42.2000
63.2436,42.3053
63.2352,42.4076
63.2233,42.5069
63.2081,42.6032
63.1895,42.6966
63.1790,42.7421
63.1676,42.7869
63.1553,42.8310
63.1422,42.8743
63.1280,42.9167
63.1125,42.9580
63.0956,42.9982
63.0774,43.0373
63.0579,43.0753
63.0370,43.1123
63.0147,43.1481
62.9912,43.1829
62.9662,43.2165
62.9400,43.2491
62.9124,43.2805
62.8834,43.3109
62.8531,43.3402
62.8215,43.3684
62.7885,43.3955
62.7542,43.4215
62.7191,43.4453
62.6822,43.4677
62.6435,43.4885
62.6031,43.5077
62.5608,43.5255
62.5168,43.5416
62.4710,43.5563
62.4234,43.5694
62.3740,43.5809
62.3228,43.5909
62.2698,43.5994
62.2150,43.6063
62.1584,43.6117
62.1001,43.6156
62.0400,43.6179
61.9780,43.6186
61.9161,43.6179
61.8559,43.6156
61.7974,43.6117
61.7406,43.6063
61.6856,43.5994
61.6324,43.5909
61.5809,43.5809
61.5311,43.5694
61.4830,43.5563
61.4367,43.5416
61.3922,43.5255
61.3493,43.5077
61.3083,43.4885
61.2689,43.4677
61.2313,43.4453
61.1955,43.4215
61.1619,43.3955
61.1297,43.3684
61.0987,43.3402
61.0690,43.3109
61.0406,43.2805
61.0136,43.2491
60.9878,43.2165
60.9633,43.1829
60.9400,43.1481
60.9181,43.1123
60.8975,43.0753
60.8782,43.0373
60.8601,42.9982
60.8434,42.9580
60.8279,42.9167
60.8138,42.8743
60.7884,42.7854
60.7664,42.6938
60.7479,42.5993
60.7327,42.5021
60.7208,42.4021
60.7124,42.2993
60.7073,42.1938
60.7059,42.1014
61.0911,42.1014
61.0923,42.1832
61.0956,42.2626
61.1013,42.3395
61.1092,42.4139
61.1194,42.4859
61.1318,42.5554
61.1466,42.6225
61.1635,42.6871
61.1730,42.7176
61.1834,42.7473
61.1947,42.7761
61.2069,42.8041
61.2200,42.8312
61.2340,42.8575
61.2489,42.8829
61.2647,42.9075
61.2814,42.9312
61.2989,42.9541
61.3174,42.9761
61.3368,42.9973
61.3570,43.0176
61.3782,43.0371
61.4003,43.0557
61.4232,43.0735
61.4480,43.0903
61.4740,43.1061
61.5012,43.1207
61.5296,43.1343
61.5593,43.1468
61.5902,43.1581
61.6223,43.1685
61.6556,43.1777
61.6902,43.1858
61.7260,43.1929
61.7630,43.1988
61.8013,43.2037
61.8408,43.2075
61.8815,43.2102
61.9234,43.2119
61.9666,43.2124
62.0097,43.2119
62.0516,43.2102
62.0922,43.2075
62.1315,43.2037
62.1695,43.1988
62.2063,43.1929
62.2418,43.1858
62.2760,43.1777
62.3090,43.1685
62.3407,43.1581
62.3711,43.1468
62.4002,43.1343
62.4280,43.1207
62.4546,43.1061
62.4799,43.0903
62.5040,43.0735
62.5276,43.0557
62.5504,43.0371
62.5722,43.0176
62.5930,42.9973
62.6129,42.9761
62.6319,42.9541
62.6499,42.9312
62.6670,42.9075
62.6831,42.8829
62.6983,42.8575
62.7125,42.8312
62.7258,42.8041
62.7382,42.7761
62.7496,42.7473
62.7601,42.7176
62.7696,42.6871
62.7866,42.6225
62.8013,42.5554
62.8138,42.4859
62.8240,42.4139
62.8319,42.3395
62.8375,42.2626
62.8409,42.1832
62.8421,42.1014
62.8421,39.8433
62.8409,39.7616
62.8375,39.6826
62.8319,39.6062
62.8240,39.5324
62.8138,39.4612
62.8013,39.3928
62.7866,39.3269
62.7784,39.2950
62.7696,39.2637
62.7601,39.2332
62.7497,39.2036
62.7384,39.1749
62.7262,39.1471
62.7131,39.1202
62.6991,39.0942
62.6843,39.0690
62.6685,39.0448
62.6518,39.0215
62.6342,38.9991
62.6158,38.9775
62.5964,38.9569
62.5761,38.9371
62.5550,38.9183
62.5329,38.9003
62.5100,38.8833
62.4859,38.8665
62.4606,38.8507
62.4339,38.8361
62.4058,38.8225
62.3765,38.8101
62.3458,38.7987
62.3139,38.7884
62.2805,38.7791
62.2459,38.7710
62.2100,38.7640
62.1727,38.7580
62.1341,38.7531
62.0942,38.7493
62.0530,38.7466
62.0104,38.7450
61.9666,38.7444
61.9234,38.7450
61.8815,38.7466
61.8408,38.7493
61.8013,38.7531
61.7630,38.7580
61.7260,38.7640
61.6902,38.7710
61.6556,38.7791
61.6223,38.7884
61.5902,38.7987
61.5593,38.8101
61.5296,38.8225
61.5012,38.8361
61.4740,38.8507
61.4480,38.8665
61.4232,38.8833
61.4003,38.9003
61.3782,38.9183
61.3570,38.9371
61.3368,38.9569
61.3174,38.9775
61.2989,38.9991
61.2814,39.0215
61.2647,39.0448
61.2489,39.0690
61.2340,39.0942
61.2200,39.1202
61.2069,39.1471
61.1947,39.1749
61.1834,39.2036
61.1730,39.2332
61.1635,39.2637
61.1466,39.3269
61.1318,39.3928
61.1194,39.4612
61.1092,39.5324
61.1013,39.6062
61.0956,39.6826
61.0923,39.7616
61.0911,39.8433
61.0911,42.1014
60.7059,42.1014
60.7056,42.0854
60.7056,39.8433
60.7056,39.8333
60.7074,39.7251
60.7128,39.6202
60.7217,39.5184
60.7275,39.4686
60.7342,39.4197
60.7418,39.3716
60.7503,39.3243
60.7597,39.2778
60.7700,39.2320
60.7812,39.1871
60.7933,39.1430
60.8062,39.0996
60.8201,39.0571
60.8351,39.0155
60.8512,38.9751
60.8687,38.9358
60.8873,38.8976
60.9072,38.8606
60.9284,38.8248
60.9508,38.7901
60.9744,38.7565
60.9993,38.7241
61.0254,38.6928
61.0528,38.6626
61.0814,38.6336
61.1112,38.6058
61.1423,38.5791
61.1746,38.5535
61.2082,38.5291
61.2440,38.5060
61.2815,38.4843
61.3206,38.4642
61.3613,38.4456
61.4037,38.4284
61.4477,38.4128
61.4933,38.3986
61.5406,38.3859
61.5896,38.3747
61.6401,38.3650
61.6924,38.3568
61.7462,38.3501
61.8017,38.3449
61.8588,38.3412
61.9176,38.3389
61.9780,38.3382
Z" /> 
<path style="fill:#F2EDA1; fill-opacity:1.0000; stroke:none;fill-rule:evenodd;"
d="M 69.7566,38.3389
69.8153,38.3412
69.8724,38.3449
69.9277,38.3501
69.9813,38.3568
70.0332,38.3650
70.0835,38.3747
70.1320,38.3859
70.1789,38.3986
70.2241,38.4128
70.2676,38.4284
70.3094,38.4456
70.3495,38.4642
70.3879,38.4843
70.4246,38.5060
70.4597,38.5291
70.4940,38.5535
70.5271,38.5791
70.5588,38.6058
70.5893,38.6336
70.6185,38.6626
70.6463,38.6928
70.6729,38.7241
70.6982,38.7565
70.7222,38.7901
70.7450,38.8248
70.7664,38.8606
70.7865,38.8976
70.8054,38.9358
70.8229,38.9751
70.8392,39.0155
70.8541,39.0571
70.8810,39.1430
70.9042,39.2320
70.9239,39.3243
70.9400,39.4197
70.9525,39.5184
70.9615,39.6202
70.9668,39.7251
70.9686,39.8333
70.9686,42.0918
70.9669,42.2000
70.9619,42.3053
70.9534,42.4076
70.9416,42.5069
70.9264,42.6032
70.9078,42.6966
70.8972,42.7421
70.8858,42.7869
70.8736,42.8310
70.8605,42.8743
70.8463,42.9167
70.8307,42.9580
70.8139,42.9982
70.7957,43.0373
70.7761,43.0753
70.7552,43.1123
70.7330,43.1481
70.7094,43.1829
70.6845,43.2165
70.6582,43.2491
70.6306,43.2805
70.6016,43.3109
70.5713,43.3402
70.5397,43.3684
70.5067,43.3955
70.4724,43.4215
70.4373,43.4453
70.4004,43.4677
70.3618,43.4885
70.3213,43.5077
70.2791,43.5255
70.2350,43.5416
70.1892,43.5563
70.1416,43.5694
70.0922,43.5809
70.0410,43.5909
69.9880,43.5994
69.9332,43.6063
69.8767,43.6117
69.8183,43.6156
69.7582,43.6179
69.6963,43.6186
69.6343,43.6179
69.5741,43.6156
69.5156,43.6117
69.4589,43.6063
69.4039,43.5994
69.3506,43.5909
69.2991,43.5809
69.2493,43.5694
69.2013,43.5563
69.1550,43.5416
69.1104,43.5255
69.0676,43.5077
69.0265,43.4885
68.9872,43.4677
68.9496,43.4453
68.9137,43.4215
68.8801,43.3955
68.8479,43.3684
68.8169,43.3402
68.7873,43.3109
68.7589,43.2805
68.7318,43.2491
68.7060,43.2165
68.6815,43.1829
68.6583,43.1481
68.6364,43.1123
68.6157,43.0753
68.5964,43.0373
68.5784,42.9982
68.5616,42.9580
68.5462,42.9167
68.5320,42.8743
68.5066,42.7854
68.4847,42.6938
68.4661,42.5993
68.4509,42.5021
68.4391,42.4021
68.4306,42.2993
68.4255,42.1938
68.4241,42.1014
68.8094,42.1014
68.8105,42.1832
68.8139,42.2626
68.8195,42.3395
68.8275,42.4139
68.8376,42.4859
68.8501,42.5554
68.8648,42.6225
68.8818,42.6871
68.8913,42.7176
68.9017,42.7473
68.9130,42.7761
68.9252,42.8041
68.9383,42.8312
68.9523,42.8575
68.9671,42.8829
68.9829,42.9075
68.9996,42.9312
69.0172,42.9541
69.0356,42.9761
69.0550,42.9973
69.0753,43.0176
69.0964,43.0371
69.1185,43.0557
69.1414,43.0735
69.1662,43.0903
69.1922,43.1061
69.2194,43.1207
69.2478,43.1343
69.2775,43.1468
69.3084,43.1581
69.3405,43.1685
69.3739,43.1777
69.4084,43.1858
69.4442,43.1929
69.4813,43.1988
69.5195,43.2037
69.5590,43.2075
69.5997,43.2102
69.6416,43.2119
69.6848,43.2124
69.7279,43.2119
69.7698,43.2102
69.8104,43.2075
69.8497,43.2037
69.8878,43.1988
69.9245,43.1929
69.9600,43.1858
69.9943,43.1777
70.0272,43.1685
70.0589,43.1581
70.0893,43.1468
70.1184,43.1343
70.1463,43.1207
70.1729,43.1061
70.1982,43.0903
70.2222,43.0735
70.2459,43.0557
70.2686,43.0371
70.2904,43.0176
70.3113,42.9973
70.3312,42.9761
70.3501,42.9541
70.3681,42.9312
70.3852,42.9075
70.4013,42.8829
70.4165,42.8575
70.4308,42.8312
70.4441,42.8041
70.4564,42.7761
70.4678,42.7473
70.4783,42.7176
70.4878,42.6871
70.5048,42.6225
70.5195,42.5554
70.5320,42.4859
70.5422,42.4139
70.5501,42.3395
70.5558,42.2626
70.5592,42.1832
70.5603,42.1014
70.5603,39.8433
70.5592,39.7616
70.5558,39.6826
70.5501,39.6062
70.5422,39.5324
70.5320,39.4612
70.5195,39.3928
70.5048,39.3269
70.4966,39.2950
70.4878,39.2637
70.4783,39.2332
70.4679,39.2036
70.4566,39.1749
70.4444,39.1471
70.4314,39.1202
70.4174,39.0942
70.4025,39.0690
70.3867,39.0448
70.3700,39.0215
70.3525,38.9991
70.3340,38.9775
70.3146,38.9569
70.2944,38.9371
70.2732,38.9183
70.2512,38.9003
70.2282,38.8833
70.2042,38.8665
70.1788,38.8507
70.1521,38.8361
70.1241,38.8225
70.0947,38.8101
70.0641,38.7987
70.0321,38.7884
69.9988,38.7791
69.9642,38.7710
69.9282,38.7640
69.8909,38.7580
69.8524,38.7531
69.8125,38.7493
69.7712,38.7466
69.7287,38.7450
69.6848,38.7444
69.6416,38.7450
69.5997,38.7466
69.5590,38.7493
69.5195,38.7531
69.4813,38.7580
69.4442,38.7640
69.4084,38.7710
69.3739,38.7791
69.3405,38.7884
69.3084,38.7987
69.2775,38.8101
69.2478,38.8225
69.2194,38.8361
69.1922,38.8507
69.1662,38.8665
69.1414,38.8833
69.1185,38.9003
69.0964,38.9183
69.0753,38.9371
69.0550,38.9569
69.0356,38.9775
69.0172,38.9991
68.9996,39.0215
68.9829,39.0448
68.9671,39.0690
68.9523,39.0942
68.9383,39.1202
68.9252,39.1471
68.9130,39.1749
68.9017,39.2036
68.8913,39.2332
68.8818,39.2637
68.8648,39.3269
68.8501,39.3928
68.8376,39.4612
68.8275,39.5324
68.8195,39.6062
68.8139,39.6826
68.8105,39.7616
68.8094,39.8433
68.8094,42.1014
68.4241,42.1014
68.4239,42.0854
68.4239,39.8433
68.4239,39.8333
68.4256,39.7251
68.4310,39.6202
68.4400,39.5184
68.4458,39.4686
68.4525,39.4197
68.4601,39.3716
68.4686,39.3243
68.4780,39.2778
68.4883,39.2320
68.4994,39.1871
68.5115,39.1430
68.5245,39.0996
68.5383,39.0571
68.5533,39.0155
68.5695,38.9751
68.5869,38.9358
68.6056,38.8976
68.6255,38.8606
68.6466,38.8248
68.6690,38.7901
68.6926,38.7565
68.7175,38.7241
68.7436,38.6928
68.7710,38.6626
68.7996,38.6336
68.8295,38.6058
68.8605,38.5791
68.8929,38.5535
68.9265,38.5291
68.9623,38.5060
68.9997,38.4843
69.0388,38.4642
69.0795,38.4456
69.1219,38.4284
69.1659,38.4128
69.2116,38.3986
69.2589,38.3859
69.3078,38.3747
69.3584,38.3650
69.4106,38.3568
69.4644,38.3501
69.5199,38.3449
69.5771,38.3412
69.6358,38.3389
69.6963,38.3382
Z" /> 
</g>
<g style="fill:none; 
stroke:#F2EDA1; stroke-width:0.1200; stroke-opacity:1; 
stroke-linecap:round; stroke-linejoin:round;">
<path d="M67.1446 63.7650
L66.6221 63.7650
" />
<path d="M67.1446 65.2350
L66.6221 65.2350
" />
</g> 
</svg>
