<?xml version="1.0" standalone="no"?>
 <!DOCTYPE svg PUBLIC "-//W3C//DTD SVG 1.1//EN" 
 "http://www.w3.org/Graphics/SVG/1.1/DTD/svg11.dtd"> 
<svg
  xmlns:svg="http://www.w3.org/2000/svg"
  xmlns="http://www.w3.org/2000/svg"
  xmlns:xlink="http://www.w3.org/1999/xlink"
  version="1.1"
  width="297.0022mm" height="210.0072mm" viewBox="0.0000 0.0000 297.0022 210.0072">
<title>SVG Image created as LDC_mic_volt-mult-B_Cu.svg date 2026/01/25 17:33:50 </title>
  <desc>Image generated by PCBNEW </desc>
<g style="fill:#000000; fill-opacity:1.0000;stroke:#000000; stroke-opacity:1.0000;
stroke-linecap:round; stroke-linejoin:round;"
 transform="translate(0 0) scale(1 1)">
</g>
<g style="fill:none; 
stroke:#4D7FC4; stroke-width:0.4000; stroke-opacity:1; 
stroke-linecap:round; stroke-linejoin:round;">
<path d="M71.0000 72.0000
L60.0000 72.0000
" />
</g>
<g style="fill:none; 
stroke:#4D7FC4; stroke-width:0.2000; stroke-opacity:1; 
stroke-linecap:round; stroke-linejoin:round;">
<path d="M66.0000 58.7500
L66.0000 59.7500
" />
<path d="M70.5000 57.8000
L70.5000 59.5000
" />
<path d="M67.5000 51.0000
L70.5000 51.0000
" />
<path d="M73.5000 74.0000
L68.5000 74.0000
" />
<path d="M69.0000 55.0000
L70.5000 53.5000
" />
<path d="M73.0000 61.0000
L65.7500 68.5000
" />
<path d="M66.0000 58.7500
L66.0000 57.2500
" />
<path d="M66.0000 59.7500
L67.0000 60.7500
" />
<path d="M69.5000 68.5000
L67.0000 68.5000
" />
<path d="M73.0000 54.5000
L73.0000 61.0000
" />
<path d="M70.5000 52.2500
L67.5000 52.2500
" />
<path d="M70.5000 60.7500
L67.0000 60.7500
" />
<path d="M66.0000 53.7500
L66.0000 57.2500
" />
<path d="M67.0000 74.0000
L63.2000 74.0000
" />
<path d="M67.5000 52.2500
L66.0000 53.7500
" />
<path style="fill:#4D7FC4; fill-opacity:1.0000; stroke:none;fill-rule:evenodd;"
d="M 51.5926,38.6288
51.4894,38.7125
51.3912,38.8017
51.2982,38.8962
51.2105,38.9958
51.1285,39.1003
51.0524,39.2094
50.9824,39.3229
50.9188,39.4405
50.8617,39.5621
50.8115,39.6873
50.7683,39.8160
50.7325,39.9478
50.7042,40.0827
50.6837,40.2203
50.6712,40.3603
50.6670,40.5026
50.6706,40.6339
50.6812,40.7632
50.6987,40.8904
50.7228,41.0154
50.7534,41.1379
50.7903,41.2578
50.8333,41.3748
50.8822,41.4888
50.9368,41.5996
50.9970,41.7071
51.0625,41.8110
51.1332,41.9111
51.2089,42.0073
51.2893,42.0994
51.3744,42.1871
51.4639,42.2704
51.3482,42.5224
51.2420,42.4292
51.1410,42.3305
51.0454,42.2266
50.9554,42.1176
50.8713,42.0038
50.7932,41.8855
50.7215,41.7629
50.6563,41.6361
50.5979,41.5055
50.5466,41.3713
50.5025,41.2336
50.4659,41.0928
50.4370,40.9491
50.4161,40.8027
50.4034,40.6538
50.3991,40.5026
50.4040,40.3406
50.4187,40.1812
50.4427,40.0247
50.4758,39.8713
50.5177,39.7214
50.5681,39.5752
50.6268,39.4331
50.6934,39.2952
50.7677,39.1620
50.8494,39.0336
50.9381,38.9104
51.0336,38.7927
51.1356,38.6807
51.2439,38.5748
51.3581,38.4751
51.4779,38.3821
Z" /> 
<path style="fill:#4D7FC4; fill-opacity:1.0000; stroke:none;fill-rule:evenodd;"
d="M 52.0166,39.5411
51.9747,39.5899
51.9350,39.6404
51.8975,39.6927
51.8623,39.7468
51.8295,39.8024
51.7991,39.8596
51.7713,39.9183
51.7461,39.9785
51.7235,40.0400
51.7038,40.1028
51.6868,40.1668
51.6728,40.2319
51.6618,40.2981
51.6538,40.3654
51.6489,40.4336
51.6473,40.5026
51.6484,40.5593
51.6516,40.6153
51.6570,40.6707
51.6644,40.7255
51.6739,40.7796
51.6854,40.8330
51.6988,40.8856
51.7141,40.9375
51.7313,40.9884
51.7503,41.0385
51.7711,41.0877
51.7937,41.1360
51.8179,41.1832
51.8439,41.2294
51.8714,41.2745
51.9006,41.3185
51.7745,41.5932
51.7295,41.5367
51.6868,41.4783
51.6465,41.4181
51.6088,41.3562
51.5737,41.2925
51.5412,41.2273
51.5115,41.1605
51.4845,41.0923
51.4605,41.0227
51.4394,40.9517
51.4214,40.8796
51.4065,40.8062
51.3947,40.7318
51.3863,40.6563
51.3811,40.5799
51.3794,40.5026
51.3817,40.4135
51.3885,40.3256
51.3998,40.2389
51.4154,40.1537
51.4351,40.0699
51.4590,39.9879
51.4867,39.9075
51.5184,39.8291
51.5537,39.7525
51.5927,39.6781
51.6352,39.6059
51.6810,39.5360
51.7302,39.4685
51.7824,39.4035
51.8378,39.3411
51.8960,39.2815
Z" /> 
<path style="fill:#4D7FC4; fill-opacity:1.0000; stroke:none;fill-rule:evenodd;"
d="M 51.2007,37.7858
51.0420,37.9009
50.8906,38.0252
50.7470,38.1582
50.6115,38.2996
50.4846,38.4489
50.3667,38.6058
50.2580,38.7699
50.1592,38.9407
50.0705,39.1178
49.9923,39.3010
49.9250,39.4897
49.8691,39.6835
49.8249,39.8822
49.8074,39.9831
49.7929,40.0852
49.7815,40.1882
49.7733,40.2921
49.7684,40.3970
49.7668,40.5026
49.7727,40.7026
49.7903,40.8993
49.8192,41.0925
49.8592,41.2817
49.9097,41.4668
49.9706,41.6473
50.0414,41.8229
50.1219,41.9933
50.2116,42.1581
50.3103,42.3170
50.4176,42.4695
50.5331,42.6155
50.6566,42.7546
50.7876,42.8863
50.9259,43.0104
51.0711,43.1266
50.9579,43.3733
50.7959,43.2478
50.6416,43.1132
50.4952,42.9701
50.3572,42.8187
50.2280,42.6595
50.1080,42.4928
49.9975,42.3191
49.8970,42.1387
49.8069,41.9521
49.7275,41.7595
49.6593,41.5615
49.6026,41.3584
49.5578,41.1505
49.5253,40.9384
49.5055,40.7223
49.4988,40.5026
49.5062,40.2726
49.5279,40.0464
49.5635,39.8245
49.6125,39.6075
49.6746,39.3957
49.7493,39.1897
49.8360,38.9897
49.9344,38.7964
50.0440,38.6102
50.1644,38.4314
50.2951,38.2606
50.4356,38.0982
50.5855,37.9447
50.7444,37.8005
50.9119,37.6661
51.0873,37.5418
51.0873,37.5418
Z" /> 
<path style="fill:#4D7FC4; fill-opacity:1.0000; stroke:none;fill-rule:evenodd;"
d="M 62.5569,41.0489
62.5571,41.1849
62.5583,41.2984
62.5614,41.3955
62.5674,41.4823
62.5718,41.5238
62.5772,41.5650
62.5838,41.6067
62.5917,41.6497
62.6119,41.7424
62.6386,41.8493
62.6386,41.8494
62.6386,41.8495
62.6387,41.8496
62.6387,41.8498
62.6387,41.8499
62.6387,41.8500
62.6551,41.9072
62.6732,41.9630
62.6930,42.0173
62.7144,42.0702
62.7376,42.1216
62.7624,42.1715
62.7889,42.2199
62.8171,42.2668
62.8469,42.3121
62.8783,42.3558
62.9114,42.3979
62.9462,42.4384
62.9826,42.4773
63.0205,42.5146
63.0602,42.5501
63.1014,42.5840
63.1443,42.6168
63.1891,42.6473
63.2361,42.6756
63.2849,42.7017
63.3358,42.7255
63.3887,42.7472
63.4435,42.7667
63.5002,42.7841
63.5589,42.7993
63.6196,42.8125
63.6821,42.8235
63.7466,42.8326
63.8130,42.8395
63.8812,42.8445
63.9514,42.8474
64.0234,42.8484
64.0955,42.8474
64.1658,42.8445
64.2342,42.8395
64.3008,42.8325
64.3656,42.8235
64.4286,42.8125
64.4897,42.7993
64.5489,42.7841
64.6062,42.7667
64.6617,42.7473
64.7153,42.7257
64.7669,42.7019
64.8167,42.6759
64.8645,42.6478
64.9104,42.6174
64.9544,42.5847
64.9549,42.5843
64.9552,42.5841
64.9555,42.5838
64.9955,42.5499
65.0341,42.5143
65.0710,42.4770
65.1065,42.4381
65.1403,42.3975
65.1726,42.3554
65.2033,42.3117
65.2325,42.2664
65.2600,42.2196
65.2860,42.1712
65.3103,42.1214
65.3331,42.0700
65.3543,42.0172
65.3738,41.9629
65.3918,41.9071
65.4081,41.8500
65.4081,41.8496
65.4081,41.8495
65.4081,41.8494
65.4081,41.8493
65.4351,41.7417
65.4462,41.6932
65.4558,41.6472
65.4641,41.6030
65.4711,41.5600
65.4770,41.5173
65.4818,41.4743
65.4857,41.4303
65.4887,41.3846
65.4927,41.2849
65.4944,41.1696
65.4948,41.0329
65.4948,40.9965
65.8048,40.9965
65.8035,41.2841
65.8026,41.4012
65.7991,41.5082
65.7958,41.5597
65.7912,41.6110
65.7850,41.6626
65.7770,41.7153
65.7669,41.7699
65.7547,41.8271
65.7399,41.8876
65.7225,41.9522
65.7225,41.9522
65.7224,41.9522
65.7224,41.9522
65.7224,41.9522
65.7224,41.9523
65.7224,41.9523
65.7224,41.9524
65.7224,41.9524
65.7224,41.9524
65.7224,41.9524
65.7224,41.9524
65.7223,41.9525
65.7223,41.9525
65.7223,41.9525
65.7223,41.9525
65.7223,41.9526
65.7223,41.9526
65.7223,41.9527
65.7222,41.9527
65.7222,41.9527
65.7016,42.0203
65.6791,42.0860
65.6548,42.1499
65.6287,42.2119
65.6007,42.2721
65.5709,42.3305
65.5393,42.3871
65.5058,42.4419
65.4704,42.4950
65.4332,42.5463
65.3941,42.5959
65.3532,42.6437
65.3103,42.6899
65.2656,42.7343
65.2190,42.7771
65.1705,42.8182
65.1194,42.8553
65.0656,42.8902
65.0091,42.9227
64.9498,42.9530
64.8879,42.9809
64.8232,43.0066
64.7557,43.0298
64.6855,43.0507
64.6125,43.0692
64.5368,43.0853
64.4582,43.0989
64.3769,43.1102
64.2928,43.1189
64.2058,43.1252
64.1941,43.1257
64.1941,43.6118
63.8527,43.6118
63.8527,43.1257
63.8411,43.1252
63.7543,43.1189
63.6704,43.1102
63.5894,43.0989
63.5112,43.0853
63.4360,43.0692
63.3636,43.0507
63.2940,43.0298
63.2273,43.0066
63.1635,42.9810
63.1024,42.9531
63.0442,42.9229
62.9888,42.8904
62.9362,42.8557
62.8863,42.8187
62.8861,42.8185
62.8363,42.7773
62.7884,42.7345
62.7426,42.6899
62.6988,42.6437
62.6569,42.5958
62.6170,42.5462
62.5790,42.4948
62.5430,42.4417
62.5090,42.3868
62.4769,42.3302
62.4466,42.2718
62.4184,42.2115
62.3920,42.1495
62.3675,42.0856
62.3449,42.0198
62.3242,41.9522
62.3066,41.8884
62.2915,41.8285
62.2787,41.7718
62.2682,41.7177
62.2596,41.6652
62.2527,41.6139
62.2474,41.5628
62.2434,41.5113
62.2386,41.4041
62.2366,41.2865
62.2345,40.9965
62.5569,40.9965
Z" /> 
<path style="fill:#4D7FC4; fill-opacity:1.0000; stroke:none;fill-rule:evenodd;"
d="M 70.8000,60.3000
70.2000,60.3000
70.2000,59.8000
70.8000,59.8000
Z" /> 
<path style="fill:#4D7FC4; fill-opacity:1.0000; stroke:none;fill-rule:evenodd;"
d="M 71.0000,81.2500
71.0190,81.1543
71.0732,81.0732
71.1543,81.0190
71.2500,81.0000
72.7500,81.0000
72.8457,81.0190
72.9268,81.0732
72.9810,81.1543
73.0000,81.2500
73.0000,82.7500
72.9810,82.8457
72.9268,82.9268
72.8457,82.9810
72.7500,83.0000
71.2500,83.0000
71.1543,82.9810
71.0732,82.9268
71.0190,82.8457
71.0000,82.7500
Z" /> 
<path style="fill:#4D7FC4; fill-opacity:1.0000; stroke:none;fill-rule:evenodd;"
d="M 56.5000,81.2500
56.5190,81.1543
56.5732,81.0732
56.6543,81.0190
56.7500,81.0000
58.2500,81.0000
58.3457,81.0190
58.4268,81.0732
58.4810,81.1543
58.5000,81.2500
58.5000,82.7500
58.4810,82.8457
58.4268,82.9268
58.3457,82.9810
58.2500,83.0000
56.7500,83.0000
56.6543,82.9810
56.5732,82.9268
56.5190,82.8457
56.5000,82.7500
Z" /> 
</g>
<g style="fill:#4D7FC4; fill-opacity:1.0000; stroke:none;">
<circle cx="73.0000" cy="36.0000" r="1.0000" /> 
<path style="fill:#4D7FC4; fill-opacity:1.0000; stroke:none;fill-rule:evenodd;"
d="M 71.2500,52.9500
71.2500,53.5000
71.2457,53.5000
71.2457,53.5653
71.2119,53.6913
71.1467,53.8044
71.0544,53.8967
70.9413,53.9619
70.8153,53.9957
70.7500,53.9957
70.7500,54.0000
70.2500,54.0000
70.2500,53.9957
70.1847,53.9957
70.0587,53.9619
69.9456,53.8967
69.8533,53.8044
69.7881,53.6913
69.7543,53.5653
69.7543,53.5000
69.7500,53.5000
69.7500,52.9500
Z" /> 
<path style="fill:#4D7FC4; fill-opacity:1.0000; stroke:none;fill-rule:evenodd;"
d="M 71.2500,52.7000
69.7500,52.7000
69.7500,51.7000
71.2500,51.7000
Z" /> 
<path style="fill:#4D7FC4; fill-opacity:1.0000; stroke:none;fill-rule:evenodd;"
d="M 69.7543,50.9000
69.7543,50.8347
69.7881,50.7087
69.8533,50.5956
69.9456,50.5033
70.0587,50.4381
70.1847,50.4043
70.2500,50.4043
70.2500,50.4000
70.7500,50.4000
70.7500,50.4043
70.8153,50.4043
70.9413,50.4381
71.0544,50.5033
71.1467,50.5956
71.2119,50.7087
71.2457,50.8347
71.2457,50.9000
71.2500,50.9000
71.2500,51.4500
69.7500,51.4500
69.7500,50.9000
Z" /> 
<path style="fill:#4D7FC4; fill-opacity:1.0000; stroke:none;fill-rule:evenodd;"
d="M 69.7500,59.9000
69.7500,59.4000
69.7543,59.4000
69.7543,59.3347
69.7881,59.2087
69.8533,59.0956
69.9456,59.0033
70.0587,58.9381
70.1847,58.9043
70.2500,58.9043
70.2500,58.9000
70.7500,58.9000
70.7500,58.9043
70.8153,58.9043
70.9413,58.9381
71.0544,59.0033
71.1467,59.0956
71.2119,59.2087
71.2457,59.3347
71.2457,59.4000
71.2500,59.4000
71.2500,59.9000
Z" /> 
<path style="fill:#4D7FC4; fill-opacity:1.0000; stroke:none;fill-rule:evenodd;"
d="M 71.2457,60.7000
71.2457,60.7653
71.2119,60.8913
71.1467,61.0044
71.0544,61.0967
70.9413,61.1619
70.8153,61.1957
70.7500,61.1957
70.7500,61.2000
70.2500,61.2000
70.2500,61.1957
70.1847,61.1957
70.0587,61.1619
69.9456,61.0967
69.8533,61.0044
69.7881,60.8913
69.7543,60.7653
69.7543,60.7000
69.7500,60.7000
69.7500,60.2000
71.2500,60.2000
71.2500,60.7000
Z" /> 
</g>
<g style="fill:#4D7FC4; fill-opacity:1.0000; stroke:none;">
<circle cx="63.2993" cy="71.9507" r="0.3000" /> 
</g>
<g style="fill:#4D7FC4; fill-opacity:1.0000; stroke:none;">
<circle cx="71.0000" cy="72.0000" r="0.3000" /> 
</g>
<g style="fill:#4D7FC4; fill-opacity:1.0000; stroke:none;">
<circle cx="60.0000" cy="72.0000" r="0.3000" /> 
</g>
<g style="fill:#4D7FC4; fill-opacity:1.0000; stroke:none;">
<circle cx="68.2500" cy="74.0000" r="0.3000" /> 
</g>
<g style="fill:#4D7FC4; fill-opacity:1.0000; stroke:none;">
<circle cx="73.5000" cy="74.0000" r="0.3000" /> 
</g>
<g style="fill:#4D7FC4; fill-opacity:1.0000; stroke:none;">
<circle cx="67.5000" cy="51.0000" r="0.3000" /> 
</g>
<g style="fill:#4D7FC4; fill-opacity:1.0000; stroke:none;">
<circle cx="69.5000" cy="68.5000" r="0.3000" /> 
</g>
<g style="fill:#4D7FC4; fill-opacity:1.0000; stroke:none;">
<circle cx="67.0000" cy="68.5000" r="0.3000" /> 
</g>
<g style="fill:#4D7FC4; fill-opacity:1.0000; stroke:none;">
<circle cx="69.0000" cy="55.0000" r="0.3000" /> 
</g>
<g style="fill:#4D7FC4; fill-opacity:1.0000; stroke:none;">
<circle cx="70.5000" cy="57.8000" r="0.3000" /> 
</g>
<g style="fill:#4D7FC4; fill-opacity:1.0000; stroke:none;">
<circle cx="73.0000" cy="54.5000" r="0.3000" /> 
</g>
<g style="fill:#4D7FC4; fill-opacity:1.0000; stroke:none;">
<circle cx="65.7500" cy="68.5000" r="0.3000" /> 
</g>
<g style="fill:#4D7FC4; fill-opacity:1.0000; stroke:none;">
<circle cx="63.2000" cy="74.0000" r="0.3000" /> 
</g>
<g style="fill:#4D7FC4; fill-opacity:1.0000; stroke:none;">
<circle cx="67.0000" cy="74.0000" r="0.3000" /> 
</g>
<g style="fill:#4D7FC4; fill-opacity:1.0000; stroke:none;">
<circle cx="71.8000" cy="75.0000" r="0.3000" /> 
</g>
<g style="fill:#4D7FC4; fill-opacity:1.0000; stroke:none;">
<circle cx="50.5000" cy="61.5000" r="0.3000" /> 
</g>
<g style="fill:#4D7FC4; fill-opacity:1.0000; stroke:none;">
<circle cx="51.5000" cy="73.5000" r="0.3000" /> 
</g>
<g style="fill:#4D7FC4; fill-opacity:1.0000; stroke:none;">
<circle cx="73.5000" cy="80.0000" r="0.3000" /> 
</g>
<g style="fill:#4D7FC4; fill-opacity:1.0000; stroke:none;">
<circle cx="66.0000" cy="56.5000" r="0.3000" /> 
<path style="fill:#4D7FC4; fill-opacity:1.0000; stroke:none;fill-rule:evenodd;"
d="M 50.1620,60.7140
50.3863,60.7375
50.4063,60.7413
50.6238,60.8011
50.6428,60.8081
50.8476,60.9026
50.8653,60.9126
51.0519,61.0394
51.0677,61.0521
51.2310,61.2076
51.2445,61.2228
51.2600,61.2434
51.3803,61.4029
51.3911,61.4201
51.4034,61.4436
51.4956,61.6200
51.5035,61.6387
51.5138,61.6700
51.5739,61.8530
51.5787,61.8728
51.6139,62.1007
51.6151,62.1108
52.5000,74.5000
52.5000,74.5000
62.5166,74.5000
62.5836,74.5197
62.6042,74.5363
62.6897,74.6218
62.6897,74.6218
62.8208,74.7094
62.8208,74.7094
62.9665,74.7697
62.9665,74.7697
63.1212,74.8005
63.1212,74.8005
63.1212,74.8005
63.2788,74.8005
63.2788,74.8005
63.4335,74.7697
63.5792,74.7094
63.5792,74.7094
63.7109,74.6214
63.7776,74.6005
63.7798,74.6005
66.4202,74.6005
66.4873,74.6202
66.4891,74.6214
66.6208,74.7094
66.6208,74.7094
66.7665,74.7697
66.7665,74.7697
66.9212,74.8005
66.9212,74.8005
66.9212,74.8005
67.0788,74.8005
67.0788,74.8005
67.2335,74.7697
67.3792,74.7094
67.5103,74.6218
67.5119,74.6202
67.5373,74.5948
67.5986,74.5613
67.6683,74.5663
67.7127,74.5948
67.7397,74.6218
67.7397,74.6218
67.8708,74.7094
67.8708,74.7094
68.0165,74.7697
68.0165,74.7697
68.1712,74.8005
68.1712,74.8005
68.1712,74.8005
68.3288,74.8005
68.3288,74.8005
68.4835,74.7697
68.6292,74.7094
68.6292,74.7094
68.7609,74.6214
68.8276,74.6005
68.8298,74.6005
72.9202,74.6005
72.9873,74.6202
72.9891,74.6214
73.1208,74.7094
73.1208,74.7094
73.2665,74.7697
73.2665,74.7697
73.4212,74.8005
73.4212,74.8005
73.4212,74.8005
73.5788,74.8005
73.5788,74.8005
73.7335,74.7697
73.8792,74.7094
74.0103,74.6218
74.0373,74.5948
74.0958,74.5363
74.1571,74.5028
74.1834,74.5000
75.4951,74.5000
75.5049,74.5004
75.5360,74.5028
75.7249,74.5177
75.7441,74.5207
75.9540,74.5711
75.9725,74.5771
76.0803,74.6218
76.1720,74.6598
76.1893,74.6686
76.3734,74.7814
76.3891,74.7928
76.5532,74.9330
76.5670,74.9468
76.7072,75.1109
76.7186,75.1266
76.8314,75.3107
76.8402,75.3280
76.9228,75.5275
76.9289,75.5460
76.9793,75.7559
76.9823,75.7751
76.9996,75.9951
77.0000,76.0049
77.0000,81.9951
76.9996,82.0049
76.9823,82.2249
76.9793,82.2441
76.9289,82.4540
76.9228,82.4725
76.8402,82.6720
76.8314,82.6893
76.7186,82.8734
76.7072,82.8891
76.5670,83.0532
76.5532,83.0670
76.3891,83.2072
76.3734,83.2186
76.1893,83.3314
76.1720,83.3402
75.9725,83.4228
75.9540,83.4289
75.7441,83.4793
75.7249,83.4823
75.5049,83.4996
75.4951,83.5000
73.3600,83.5000
73.2930,83.4803
73.2472,83.4275
73.2373,83.3584
73.2663,83.2948
73.2723,83.2883
73.3423,83.2183
73.4344,83.0691
73.4344,83.0691
73.4895,82.9027
73.4895,82.9027
73.5000,82.8000
73.5000,82.8000
73.5000,82.2500
72.3464,82.2500
72.3960,82.1640
72.4250,82.0560
72.4250,81.9440
72.3960,81.8360
72.3464,81.7500
73.5000,81.7500
73.5000,81.2000
73.5000,81.2000
73.4895,81.0973
73.4344,80.9309
73.4344,80.9309
73.3423,80.7817
73.2183,80.6577
73.0691,80.5656
73.0691,80.5656
72.9027,80.5105
72.9027,80.5105
72.8000,80.5000
72.2500,80.5000
72.2500,81.6536
72.1640,81.6040
72.0560,81.5750
71.9440,81.5750
71.8360,81.6040
71.7500,81.6536
71.7500,80.5000
71.2000,80.5000
71.2000,80.5000
71.0973,80.5105
70.9309,80.5656
70.9309,80.5656
70.7817,80.6577
70.6577,80.7817
70.5656,80.9309
70.5656,80.9309
70.5105,81.0973
70.5105,81.0973
70.5000,81.2000
70.5000,81.7500
71.6536,81.7500
71.6040,81.8360
71.5750,81.9440
71.5750,82.0560
71.6040,82.1640
71.6536,82.2500
70.5000,82.2500
70.5000,82.8000
70.5105,82.9027
70.5656,83.0691
70.5656,83.0691
70.6577,83.2183
70.7277,83.2883
70.7611,83.3496
70.7562,83.4193
70.7143,83.4753
70.6488,83.4997
70.6400,83.5000
58.8607,83.5000
58.7937,83.4803
58.7479,83.4275
58.7380,83.3584
58.7670,83.2948
58.7730,83.2883
58.8427,83.2187
58.9348,83.0693
58.9900,82.9028
59.0005,82.8000
59.0005,81.2000
58.9900,81.0972
58.9348,80.9307
58.8427,80.7813
58.7187,80.6573
58.5693,80.5652
58.4028,80.5100
58.4028,80.5100
58.3000,80.4995
56.7000,80.4995
56.7000,80.4995
56.5972,80.5100
56.5972,80.5100
56.4307,80.5652
56.4307,80.5652
56.2813,80.6573
56.1573,80.7813
56.0652,80.9307
56.0652,80.9307
56.0651,80.9309
56.0100,81.0972
56.0100,81.0972
56.0100,81.0972
55.9995,81.2000
55.9995,82.8000
55.9995,82.8000
56.0100,82.9028
56.0100,82.9028
56.0599,83.0532
56.0652,83.0693
56.1573,83.2186
56.1573,83.2187
56.2270,83.2883
56.2604,83.3496
56.2555,83.4193
56.2136,83.4753
56.1481,83.4997
56.1393,83.5000
50.9085,83.5000
50.8982,83.4996
50.6641,83.4800
50.6437,83.4765
50.4213,83.4196
50.4017,83.4128
50.2596,83.3496
50.1918,83.3196
50.1737,83.3096
50.1513,83.2948
49.9822,83.1828
49.9660,83.1700
49.7983,83.0131
49.7844,82.9977
49.7303,82.9268
49.6451,82.8151
49.6340,82.7977
49.5271,82.5945
49.5190,82.5754
49.4473,82.3572
49.4426,82.3371
49.4074,82.1049
49.4063,82.0946
48.0929,62.3931
48.0926,62.3828
48.0965,62.1494
48.0985,62.1289
48.1400,61.9044
48.1454,61.8845
48.2234,61.6700
48.2320,61.6513
48.2446,61.6290
48.3445,61.4526
48.3561,61.4356
48.3686,61.4201
48.4999,61.2582
48.5141,61.2434
48.6852,61.0922
48.7017,61.0799
48.8955,60.9592
48.9138,60.9498
49.1249,60.8627
49.1445,60.8565
49.3721,60.8044
49.3822,60.8025
49.9013,60.7284
49.9115,60.7274
50.1417,60.7136
Z" /> 
</g> 
</svg>
